<?xml version="1.0" encoding="UTF-8"?>
<!DOCTYPE svg PUBLIC "-//W3C//DTD SVG 1.1//EN" "http://www.w3.org/Graphics/SVG/1.1/DTD/svg11.dtd">
<!-- Creator: CorelDRAW 2017 -->
<svg xmlns="http://www.w3.org/2000/svg" xml:space="preserve" width="329px" height="229px" version="1.1" style="shape-rendering:geometricPrecision; text-rendering:geometricPrecision; image-rendering:optimizeQuality; fill-rule:evenodd; clip-rule:evenodd"
viewBox="0 0 329 228.93"
 xmlns:xlink="http://www.w3.org/1999/xlink">
 <defs>
  <style type="text/css">
   <![CDATA[
    .fil3 {fill:#D3D3D1}
    .fil0 {fill:white}
    .fil1 {fill:black}
    .fil5 {fill:#D84C47}
    .fil2 {fill:black}
    .fil7 {fill:white}
    .fil4 {fill:black}
    .fil6 {fill:black;fill-rule:nonzero}
   ]]>
  </style>
 </defs>
 <g id="Слой_x0020_1">
  <metadata id="CorelCorpID_0Corel-Layer"/>
  <polygon class="fil0" points="0,0 0,229 329,229 329,0 "/>
  <path class="fil1" d="M109.01 80.15l0 -6.81c0,-0.27 0.22,-0.5 0.49,-0.5 0.28,0 0.51,0.23 0.51,0.5l0 6.31 30.11 0c0.26,0 0.49,0.22 0.49,0.5 0,0.28 -0.23,0.49 -0.49,0.49l-30.62 0c-0.27,0 -0.49,-0.21 -0.49,-0.49z"/>
  <path class="fil1" d="M79.29 108.89l0 -6.81c0,-0.28 0.21,-0.5 0.49,-0.5 0.27,0 0.5,0.22 0.5,0.5l0 6.3 30.81 0c0.28,0 0.5,0.23 0.5,0.51 0,0.27 -0.22,0.48 -0.5,0.48l-31.31 0c-0.28,0 -0.49,-0.21 -0.49,-0.48z"/>
  <path class="fil1" d="M49.56 138.61l0 -6.93c0,-0.28 0.21,-0.51 0.49,-0.51 0.28,0 0.5,0.23 0.5,0.51l0 6.43 30.34 0c0.27,0 0.5,0.23 0.5,0.5 0,0.28 -0.23,0.49 -0.5,0.49l-30.84 0c-0.28,0 -0.49,-0.21 -0.49,-0.49z"/>
  <path class="fil1" d="M67.48 167.35c0,-0.28 0.21,-0.5 0.48,-0.5l29.65 0c0.28,0 0.5,0.22 0.5,0.5 0,0.28 -0.22,0.49 -0.5,0.49l-29.65 0c-0.27,0 -0.48,-0.21 -0.48,-0.49z"/>
  <path class="fil1" d="M20.82 167.35l0 -6.94c0,-0.27 0.21,-0.5 0.49,-0.5l37.68 0c0.27,0 0.49,0.23 0.49,0.5 0,0.28 -0.22,0.49 -0.49,0.49l-37.18 0 0 5.95 30.34 0c0.28,0 0.5,0.22 0.5,0.5 0,0.28 -0.22,0.49 -0.5,0.49l-30.84 0c-0.28,0 -0.49,-0.21 -0.49,-0.49z"/>
  <path class="fil1" d="M67.46 160.41c0,-0.27 0.23,-0.5 0.5,-0.5l29.48 0c0.26,0 0.49,0.23 0.49,0.5 0,0.28 -0.23,0.49 -0.49,0.49l-29.48 0c-0.27,0 -0.5,-0.21 -0.5,-0.49z"/>
  <path class="fil2" d="M133.64 95.01c0,-0.27 0.21,-0.5 0.49,-0.5l4.49 0c0.28,0 0.51,0.23 0.51,0.5 0,0.28 -0.23,0.49 -0.51,0.49l-4.49 0c-0.28,0 -0.49,-0.21 -0.49,-0.49z"/>
  <path class="fil2" d="M109.01 73.21c0,-0.27 0.23,-0.5 0.51,-0.5l26.06 0c0.28,0 0.49,0.23 0.49,0.5 0,0.28 -0.21,0.49 -0.49,0.49l-26.06 0c-0.28,0 -0.51,-0.21 -0.51,-0.49z"/>
  <path class="fil1" d="M133.75 95.26c-0.19,-0.19 -0.19,-0.5 0.01,-0.7l21.91 -21.7c0.2,-0.19 0.51,-0.19 0.7,0.01 0.2,0.18 0.2,0.5 0,0.7l-21.92 21.69c-0.19,0.2 -0.5,0.2 -0.7,0z"/>
  <path class="fil1" d="M103.74 124.99c-0.2,-0.18 -0.2,-0.5 0,-0.7l22.9 -22.67c0.18,-0.19 0.5,-0.19 0.7,0 0.19,0.2 0.19,0.51 -0.01,0.7l-22.89 22.68c-0.19,0.19 -0.51,0.19 -0.7,-0.01z"/>
  <path class="fil1" d="M76.66 151.81c-0.2,-0.18 -0.19,-0.5 0,-0.7l20.01 -19.82c0.2,-0.19 0.52,-0.19 0.7,0 0.2,0.2 0.2,0.52 0,0.7l-20.01 19.84c-0.2,0.18 -0.5,0.18 -0.7,-0.02z"/>
  <path class="fil1" d="M47.72 170.96l10.88 -10.77c0.19,-0.2 0.5,-0.19 0.7,0 0.18,0.2 0.18,0.51 0,0.7l-10.03 9.92 8.49 0 9.78 -10.66c0.19,-0.2 0.5,-0.21 0.7,-0.03 0.2,0.19 0.21,0.49 0.03,0.7l-9.92 10.82c-0.1,0.11 -0.23,0.16 -0.37,0.16l-9.91 0c-0.44,0 -0.66,-0.53 -0.35,-0.84z"/>
  <path class="fil1" d="M67.95 151.61c-0.2,-0.18 -0.2,-0.5 0,-0.7l19.65 -19.44c0.18,-0.19 0.5,-0.19 0.7,0.01 0.18,0.18 0.18,0.5 -0.02,0.7l-19.63 19.45c-0.2,0.18 -0.51,0.18 -0.7,-0.02z"/>
  <path class="fil1" d="M94.81 125.02c-0.2,-0.2 -0.2,-0.52 0,-0.7l22.9 -22.69c0.2,-0.18 0.51,-0.18 0.7,0 0.2,0.2 0.2,0.52 0,0.7l-22.9 22.69c-0.2,0.2 -0.51,0.2 -0.7,0z"/>
  <path class="fil1" d="M124.8 95.32c-0.19,-0.2 -0.19,-0.52 0,-0.7l21.83 -21.62c0.18,-0.2 0.5,-0.2 0.7,0 0.19,0.2 0.19,0.5 -0.01,0.7l-21.82 21.62c-0.19,0.19 -0.51,0.18 -0.7,0z"/>
  <path class="fil1" d="M155.59 80.06l0 -6.85c0,-0.27 0.21,-0.5 0.49,-0.5 0.27,0 0.5,0.23 0.5,0.5l0 6.85c0,0.27 -0.23,0.5 -0.5,0.5 -0.28,0 -0.49,-0.23 -0.49,-0.5z"/>
  <path class="fil1" d="M47.58 178.25c0,-0.28 0.21,-0.5 0.49,-0.5l9.69 0 9.81 -10.69c0.18,-0.2 0.5,-0.21 0.7,-0.03 0.21,0.19 0.22,0.51 0.04,0.7l-9.96 10.85c-0.1,0.11 -0.23,0.16 -0.37,0.16l-9.91 0c-0.28,0 -0.49,-0.21 -0.49,-0.49z"/>
  <path class="fil1" d="M47.58 178.25l0 -6.94c0,-0.27 0.21,-0.5 0.49,-0.5 0.27,0 0.5,0.23 0.5,0.5l0 6.94c0,0.28 -0.23,0.49 -0.5,0.49 -0.28,0 -0.49,-0.21 -0.49,-0.49z"/>
  <path class="fil1" d="M57.49 178.25l0 -6.94c0,-0.27 0.21,-0.5 0.49,-0.5 0.27,0 0.5,0.23 0.5,0.5l0 6.94c0,0.28 -0.23,0.49 -0.5,0.49 -0.28,0 -0.49,-0.21 -0.49,-0.49z"/>
  <path class="fil1" d="M126.85 108.81l0 -6.86c0,-0.28 0.21,-0.5 0.49,-0.5 0.28,0 0.5,0.22 0.5,0.5l0 6.86c0,0.27 -0.22,0.49 -0.5,0.49 -0.28,0 -0.49,-0.22 -0.49,-0.49z"/>
  <path class="fil1" d="M67.4 167.35l0 -6.79c0,-0.28 0.21,-0.5 0.48,-0.5 0.28,0 0.51,0.22 0.51,0.5l0 6.79c0,0.28 -0.23,0.49 -0.51,0.49 -0.27,0 -0.48,-0.21 -0.48,-0.49z"/>
  <path class="fil2" d="M79.33 101.95c0,-0.28 0.22,-0.5 0.5,-0.5l27.11 0c0.26,0 0.49,0.22 0.49,0.5 0,0.28 -0.23,0.49 -0.49,0.49l-27.11 0c-0.28,0 -0.5,-0.21 -0.5,-0.49z"/>
  <path class="fil2" d="M49.65 131.68c0,-0.28 0.21,-0.51 0.49,-0.51l26.86 0c0.28,0 0.5,0.23 0.5,0.51 0,0.27 -0.22,0.49 -0.5,0.49l-26.86 0c-0.28,0 -0.49,-0.22 -0.49,-0.49z"/>
  <path class="fil3" d="M50.19 158.33l3.82 -3.8 -15.35 0c-1.19,-0.15 -1.55,-0.76 -1.56,-1.55 0,-0.85 0.7,-1.55 1.56,-1.55l18.48 0 10.92 -10.83 -10.01 0 -5.87 5.84c-1.85,0.84 -2.55,-1.17 -1.99,-1.99l3.89 -3.85 -15.42 0c-0.83,0 -1.49,-0.67 -1.49,-1.48l0 -0.02c0,-0.82 0.66,-1.48 1.49,-1.48l18.42 0 12.97 -12.88 -2.65 0c-0.82,0 -1.5,-0.66 -1.5,-1.48l0 -0.01c0,-0.82 0.68,-1.48 1.5,-1.48l5.65 0 10.98 -10.9 -16.63 0c-0.82,0 -1.5,-0.66 -1.5,-1.48l0 -0.02c0,-0.81 0.68,-1.48 1.5,-1.48l19.63 0 12.99 -12.88 -2.9 0c-0.82,0 -1.49,-0.66 -1.49,-1.48l0 -0.01c0,-0.82 0.67,-1.48 1.49,-1.48l5.88 0 11 -10.9 -16.88 0c-0.82,0 -1.49,-0.66 -1.49,-1.48l0 -0.01c0,-0.82 0.67,-1.48 1.49,-1.48l19.87 0 10.98 -10.9 -2.11 0c-0.82,0 -1.49,-0.66 -1.49,-1.48l0 -0.02c0,-0.82 0.67,-1.48 1.49,-1.48l5.11 0 11.99 -11.89 -17.1 0c-0.82,0 -1.49,-0.66 -1.49,-1.48l0 -0.01c0,-0.82 0.67,-1.48 1.49,-1.48l20.08 0 11.87 -11.76c1.29,-0.79 2.67,0.53 2.19,1.76l-10.07 10 48.27 0c0.82,0 1.48,0.66 1.48,1.48l0 0.01c0,0.82 -0.66,1.48 -1.48,1.48l-38.16 0c0.09,0.28 0.08,0.6 -0.04,0.9l-11.07 10.99 35.39 0c0.82,0 1.48,0.66 1.48,1.48l0 0.02c0,0.82 -0.66,1.48 -1.48,1.48l-38.39 0 -10.98 10.9 34.51 0c0.82,0 1.48,0.66 1.48,1.48l0 0.01c0,0.82 -0.66,1.48 -1.48,1.48l-37.51 0 -10.98 10.9 35.61 0c0.82,0 1.48,0.66 1.48,1.48l0 0.01c0,0.82 -0.66,1.48 -1.48,1.48l-38.61 0 -12.98 12.88 35.73 0c0.82,0 1.48,0.67 1.48,1.48l0 0.02c0,0.82 -0.66,1.48 -1.48,1.48l-38.72 0 -10.99 10.9 33.86 0c0.82,0 1.48,0.66 1.48,1.48l0 0.01c0,0.82 -0.66,1.48 -1.48,1.48l-36.86 0 -12.98 12.88 33.98 0c0.82,0 1.48,0.66 1.48,1.48l0 0.02c0,0.81 -0.66,1.48 -1.48,1.48l-36.98 0 -10.91 10.83 36 0 0 3.1 -39.13 0 -5.81 5.78c-1.85,0.84 -2.55,-1.16 -1.99,-1.98zm3.95 -3.93l0 0 2.87 -2.84 -2.87 2.84zm16.92 -16.78l0 0 12.97 -12.88 -10 0 -12.98 12.88 10.01 0zm15.97 -15.85l0 0 10.98 -10.9 -10 0 -10.98 10.9 10 0zm13.98 -13.88l0 0 12.99 -12.88 -10.01 0 -12.98 12.88 10 0zm15.98 -15.85l0 0 10.98 -10.9 -10 0 -10.98 10.9 10 0zm13.98 -13.87l0 0 10.98 -10.9 -10 0 -10.98 10.9 10 0zm13.98 -13.88l0 0 11.99 -11.89 -10.01 0 -11.98 11.89 10 0z"/>
  <path class="fil1" d="M145.59 67.27c0,-0.28 0.22,-0.49 0.5,-0.49l38.23 0c0.55,0 1,-0.45 1,-0.99 0,-0.56 -0.45,-1.01 -1,-1.01l-35.14 0c-0.28,0 -0.49,-0.21 -0.49,-0.49 0,-0.27 0.21,-0.5 0.49,-0.5l35.14 0c1.09,0 1.99,0.9 1.99,2 0,1.08 -0.9,1.98 -1.99,1.98l-38.23 0c-0.28,0 -0.5,-0.23 -0.5,-0.5z"/>
  <path class="fil1" d="M134.45 64.29c0,-0.27 0.22,-0.5 0.49,-0.5l9.84 0c0.28,0 0.5,0.23 0.5,0.5 0,0.28 -0.22,0.49 -0.5,0.49l-9.84 0c-0.27,0 -0.49,-0.21 -0.49,-0.49z"/>
  <path class="fil1" d="M123.88 65.79c0,-1.1 0.88,-2 1.98,-2l5.03 0c0.27,0 0.49,0.23 0.49,0.5 0,0.28 -0.22,0.49 -0.49,0.49l-5.03 0c-0.55,0 -0.99,0.45 -0.99,1.01 0,0.54 0.44,0.99 0.99,0.99l1.86 0c0.28,0 0.51,0.21 0.51,0.49 0,0.27 -0.23,0.5 -0.51,0.5l-1.86 0c-1.1,0 -1.98,-0.9 -1.98,-1.98z"/>
  <path class="fil1" d="M131.5 67.27c0,-0.28 0.23,-0.49 0.5,-0.49l9.57 0c0.28,0 0.49,0.21 0.49,0.49 0,0.27 -0.21,0.5 -0.49,0.5l-9.57 0c-0.27,0 -0.5,-0.23 -0.5,-0.5z"/>
  <path class="fil1" d="M117.59 95.01c0,-0.27 0.22,-0.49 0.5,-0.49l38.49 0c0.54,0 0.99,-0.45 0.99,-0.99 0,-0.55 -0.45,-1 -0.99,-1l-35.57 0c-0.28,0 -0.49,-0.21 -0.49,-0.49 0,-0.28 0.21,-0.5 0.49,-0.5l35.57 0c1.08,0 1.98,0.9 1.98,1.99 0,1.09 -0.9,1.98 -1.98,1.98l-38.49 0c-0.28,0 -0.5,-0.22 -0.5,-0.5z"/>
  <path class="fil1" d="M106.54 92.04c0,-0.28 0.23,-0.5 0.51,-0.5l9.85 0c0.27,0 0.49,0.22 0.49,0.5 0,0.28 -0.22,0.49 -0.49,0.49l-9.85 0c-0.28,0 -0.51,-0.21 -0.51,-0.49z"/>
  <path class="fil1" d="M95.14 93.53c0,-1.09 0.89,-1.99 1.98,-1.99l5.74 0c0.28,0 0.5,0.22 0.5,0.5 0,0.28 -0.22,0.49 -0.5,0.49l-5.74 0c-0.55,0 -0.99,0.45 -0.99,1 0,0.54 0.44,0.99 0.99,0.99l2.83 0c0.28,0 0.5,0.22 0.5,0.49 0,0.28 -0.22,0.5 -0.5,0.5l-2.83 0c-1.09,0 -1.98,-0.89 -1.98,-1.98z"/>
  <path class="fil1" d="M103.54 95.01c0,-0.27 0.23,-0.49 0.51,-0.49l9.77 0c0.28,0 0.51,0.22 0.51,0.49 0,0.28 -0.23,0.5 -0.51,0.5l-9.77 0c-0.28,0 -0.51,-0.22 -0.51,-0.5z"/>
  <path class="fil1" d="M76.63 121.77c0,-0.28 0.21,-0.5 0.49,-0.5l9.86 0c0.26,0 0.49,0.22 0.49,0.5 0,0.28 -0.23,0.49 -0.49,0.49l-9.86 0c-0.28,0 -0.49,-0.21 -0.49,-0.49z"/>
  <path class="fil1" d="M65.41 123.26c0,-1.1 0.89,-1.99 1.99,-1.99l5.68 0c0.27,0 0.5,0.22 0.5,0.5 0,0.28 -0.23,0.49 -0.5,0.49l-5.68 0c-0.56,0 -0.99,0.45 -0.99,1 0,0.54 0.43,0.99 0.99,0.99l2.55 0c0.27,0 0.48,0.21 0.48,0.49 0,0.28 -0.21,0.5 -0.48,0.5l-2.55 0c-1.1,0 -1.99,-0.9 -1.99,-1.98z"/>
  <path class="fil1" d="M73.8 124.74c0,-0.28 0.23,-0.49 0.51,-0.49l9.56 0c0.28,0 0.49,0.21 0.49,0.49 0,0.28 -0.21,0.5 -0.49,0.5l-9.56 0c-0.28,0 -0.51,-0.22 -0.51,-0.5z"/>
  <path class="fil1" d="M87.6 124.74c0,-0.28 0.22,-0.49 0.5,-0.49l36.77 0c0.54,0 0.99,-0.45 0.99,-0.99 0,-0.55 -0.45,-1 -0.99,-1l-33.76 0c-0.28,0 -0.5,-0.21 -0.5,-0.49 0,-0.28 0.22,-0.5 0.5,-0.5l33.76 0c1.08,0 1.98,0.89 1.98,1.99 0,1.08 -0.9,1.98 -1.98,1.98l-36.77 0c-0.28,0 -0.5,-0.22 -0.5,-0.5z"/>
  <path class="fil2" d="M60.62 151.5c0,-0.28 0.21,-0.51 0.49,-0.51l36.01 0c0.27,0 0.49,0.23 0.49,0.51 0,0.27 -0.22,0.48 -0.49,0.48l-36.01 0c-0.28,0 -0.49,-0.21 -0.49,-0.48z"/>
  <path class="fil2" d="M36.68 152.99c0,-1.1 0.88,-2 1.98,-2l18.29 0c0.27,0 0.5,0.23 0.5,0.51 0,0.27 -0.23,0.48 -0.5,0.48l-18.29 0c-0.56,0 -0.99,0.45 -0.99,1.01 0,0.54 0.43,0.99 0.99,0.99l15.19 0c0.28,0 0.49,0.21 0.49,0.49 0,0.28 -0.21,0.5 -0.49,0.5l-15.19 0c-1.1,0 -1.98,-0.9 -1.98,-1.98z"/>
  <path class="fil2" d="M57.75 154.47c0,-0.28 0.23,-0.49 0.5,-0.49l38.87 0c0.27,0 0.49,0.21 0.49,0.49 0,0.28 -0.22,0.5 -0.49,0.5l-38.87 0c-0.27,0 -0.5,-0.22 -0.5,-0.5z"/>
  <path class="fil2" d="M134.67 78.44c-0.2,-0.19 -0.2,-0.51 0,-0.7l24.89 -24.69 0.04 -0.2c0,-0.08 0,-0.17 -0.02,-0.25 -0.05,-0.26 0.12,-0.53 0.38,-0.59 0.27,-0.06 0.53,0.12 0.6,0.38 0.08,0.34 0.05,0.73 -0.1,1.1 -0.02,0.06 -0.06,0.12 -0.1,0.17l-24.99 24.78c-0.19,0.2 -0.51,0.2 -0.7,0z"/>
  <path class="fil2" d="M104.75 108.15c-0.2,-0.2 -0.2,-0.52 0,-0.7l26.7 -26.51c0.2,-0.2 0.51,-0.2 0.7,0 0.2,0.2 0.2,0.5 0,0.7l-26.7 26.51c-0.2,0.18 -0.52,0.18 -0.7,0z"/>
  <path class="fil2" d="M74.72 137.94c-0.2,-0.2 -0.2,-0.5 0,-0.7l26.79 -26.6c0.2,-0.18 0.52,-0.18 0.7,0.02 0.2,0.18 0.2,0.5 0,0.7l-26.79 26.58c-0.2,0.2 -0.52,0.2 -0.7,0z"/>
  <path class="fil2" d="M49.86 160.22c-0.42,-0.63 -0.5,-1.56 -0.08,-2.17l0.06 -0.08 17.86 -17.72c0.18,-0.18 0.5,-0.18 0.7,0.02 0.19,0.18 0.19,0.5 0,0.7l-17.81 17.66 -0.07 0.17c-0.05,0.25 -0.02,0.6 0.18,0.86 0.13,0.21 0.38,0.41 0.79,0.34l0.41 -0.13 19.78 -19.62c0.2,-0.2 0.51,-0.2 0.7,0 0.2,0.2 0.2,0.52 0,0.7l-19.86 19.71c-0.04,0.04 -0.09,0.07 -0.15,0.1 -1.12,0.51 -2.02,0.17 -2.51,-0.54z"/>
  <path class="fil2" d="M70.7 137.97c-0.19,-0.19 -0.19,-0.51 0,-0.7l26.91 -26.71c0.2,-0.18 0.52,-0.18 0.7,0.02 0.2,0.18 0.2,0.5 0,0.7l-26.91 26.7c-0.19,0.18 -0.5,0.18 -0.7,-0.01z"/>
  <path class="fil2" d="M100.81 108.09c-0.2,-0.18 -0.2,-0.5 0,-0.7l26.66 -26.45c0.19,-0.18 0.5,-0.18 0.7,0 0.19,0.2 0.19,0.52 0,0.7l-26.66 26.47c-0.2,0.18 -0.52,0.18 -0.7,-0.02z"/>
  <path class="fil2" d="M130.67 78.46c-0.19,-0.19 -0.19,-0.5 0,-0.7l25.78 -25.57c0.18,-0.18 0.5,-0.18 0.7,0 0.18,0.2 0.18,0.52 -0.02,0.7l-25.76 25.58c-0.18,0.19 -0.5,0.19 -0.7,-0.01z"/>
  <path class="fil2" d="M20.88 160.77c-0.2,-0.18 -0.22,-0.5 -0.03,-0.7l6.59 -6.94c0.19,-0.19 0.5,-0.19 0.7,-0.01 0.2,0.19 0.2,0.5 0.02,0.7l-6.58 6.94c-0.19,0.2 -0.51,0.2 -0.7,0.01z"/>
  <path class="fil2" d="M27.27 153.48c0,-0.28 0.22,-0.5 0.49,-0.5l9.47 0c0.27,0 0.49,0.22 0.49,0.5 0,0.27 -0.22,0.49 -0.49,0.49l-9.47 0c-0.27,0 -0.49,-0.22 -0.49,-0.49z"/>
  <path class="fil2" d="M96.29 131.68c0,-0.28 0.23,-0.51 0.5,-0.51l12.83 0c0.27,0 0.49,0.23 0.49,0.51 0,0.27 -0.22,0.49 -0.49,0.49l-12.83 0c-0.27,0 -0.5,-0.22 -0.5,-0.49z"/>
  <path class="fil2" d="M56.32 124.74c0,-0.28 0.22,-0.5 0.49,-0.5l13.24 0c0.27,0 0.49,0.22 0.49,0.5 0,0.28 -0.22,0.49 -0.49,0.49l-13.24 0c-0.27,0 -0.49,-0.21 -0.49,-0.49z"/>
  <path class="fil2" d="M103.6 124.74c0,-0.28 0.22,-0.5 0.49,-0.5l2.43 0c0.28,0 0.5,0.22 0.5,0.5 0,0.28 -0.22,0.49 -0.5,0.49l-2.43 0c-0.27,0 -0.49,-0.21 -0.49,-0.49z"/>
  <path class="fil2" d="M110.63 101.95c0,-0.28 0.22,-0.5 0.49,-0.5l6.84 0c0.28,0 0.5,0.22 0.5,0.5 0,0.28 -0.22,0.49 -0.5,0.49l-6.84 0c-0.27,0 -0.49,-0.21 -0.49,-0.49z"/>
  <path class="fil2" d="M86.67 95.01c0,-0.27 0.23,-0.5 0.5,-0.5l12.69 0c0.28,0 0.5,0.23 0.5,0.5 0,0.28 -0.22,0.49 -0.5,0.49l-12.69 0c-0.27,0 -0.5,-0.21 -0.5,-0.49z"/>
  <path class="fil2" d="M117.58 95.01c0,-0.27 0.22,-0.5 0.5,-0.5l7.03 0c0.27,0 0.5,0.23 0.5,0.5 0,0.28 -0.23,0.49 -0.5,0.49l-7.03 0c-0.28,0 -0.5,-0.21 -0.5,-0.49z"/>
  <path class="fil2" d="M139.52 73.21c0,-0.27 0.23,-0.5 0.5,-0.5l7.06 0c0.26,0 0.49,0.23 0.49,0.5 0,0.28 -0.23,0.49 -0.49,0.49l-7.06 0c-0.27,0 -0.5,-0.21 -0.5,-0.49z"/>
  <path class="fil2" d="M114.95 67.27c0,-0.28 0.22,-0.51 0.49,-0.51l12.03 0c0.28,0 0.5,0.23 0.5,0.51 0,0.27 -0.22,0.49 -0.5,0.49l-12.03 0c-0.27,0 -0.49,-0.22 -0.49,-0.49z"/>
  <path class="fil2" d="M49.69 131.87c-0.2,-0.18 -0.2,-0.5 0,-0.7l6.65 -6.75c0.18,-0.19 0.5,-0.19 0.7,-0.01 0.2,0.2 0.2,0.52 0,0.7l-6.65 6.76c-0.18,0.2 -0.5,0.2 -0.7,0z"/>
  <path class="fil2" d="M79.64 102.29c-0.18,-0.18 -0.18,-0.5 0,-0.7l7.01 -6.95c0.18,-0.18 0.5,-0.18 0.7,0 0.18,0.2 0.18,0.52 0,0.7l-7.01 6.95c-0.19,0.2 -0.5,0.2 -0.7,0z"/>
  <path class="fil2" d="M109.17 73.54c-0.19,-0.2 -0.19,-0.5 0,-0.7l6.03 -5.98c0.2,-0.2 0.51,-0.2 0.7,0 0.2,0.2 0.2,0.5 0,0.7l-6.03 5.98c-0.19,0.2 -0.51,0.2 -0.7,0z"/>
  <path class="fil2" d="M155.69 73.21c0,-0.27 0.23,-0.5 0.49,-0.5l15.45 0c0.28,0 0.5,0.23 0.5,0.5 0,0.28 -0.22,0.49 -0.5,0.49l-15.45 0c-0.26,0 -0.49,-0.21 -0.49,-0.49z"/>
  <path class="fil1" d="M155.98 80.15c0,-0.28 0.23,-0.5 0.51,-0.5l7.81 0c0.27,0 0.5,0.22 0.5,0.5 0,0.28 -0.23,0.49 -0.5,0.49l-7.81 0c-0.28,0 -0.51,-0.21 -0.51,-0.49z"/>
  <path class="fil1" d="M149.3 86.95c-0.19,-0.19 -0.19,-0.5 0,-0.7l6.42 -6.46c0.2,-0.18 0.52,-0.18 0.7,0 0.2,0.2 0.2,0.52 0,0.7l-6.42 6.46c-0.19,0.2 -0.5,0.2 -0.7,0z"/>
  <path class="fil1" d="M126.88 108.89c0,-0.28 0.22,-0.51 0.5,-0.51l8.1 0c0.28,0 0.5,0.23 0.5,0.51 0,0.27 -0.22,0.48 -0.5,0.48l-8.1 0c-0.28,0 -0.5,-0.21 -0.5,-0.48z"/>
  <path class="fil1" d="M119.25 116.59c-0.18,-0.2 -0.18,-0.52 0.02,-0.7l7.67 -7.53c0.2,-0.19 0.52,-0.19 0.7,0.01 0.2,0.2 0.19,0.5 0,0.7l-7.69 7.52c-0.18,0.2 -0.5,0.2 -0.7,0z"/>
  <path class="fil2" d="M126.53 101.95c0,-0.28 0.23,-0.5 0.49,-0.5l12.67 0c0.27,0 0.49,0.22 0.49,0.5 0,0.28 -0.22,0.49 -0.49,0.49l-12.67 0c-0.26,0 -0.49,-0.21 -0.49,-0.49z"/>
  <path class="fil1" d="M83.38 151.44c-0.18,-0.2 -0.18,-0.51 0.02,-0.7l13.37 -13.1c0.19,-0.2 0.51,-0.2 0.7,0 0.2,0.19 0.2,0.51 0,0.7l-13.39 13.1c-0.2,0.2 -0.5,0.2 -0.7,0z"/>
  <path class="fil2" d="M146.52 52.4c0,-0.27 0.23,-0.49 0.51,-0.49l51.17 0c0.54,0 0.99,-0.44 0.99,-0.99 0,-0.55 -0.45,-1 -0.99,-1l-48.13 0c-0.27,0 -0.49,-0.21 -0.49,-0.49 0,-0.28 0.22,-0.5 0.49,-0.5l48.13 0c1.08,0 1.98,0.9 1.98,1.99 0,1.09 -0.9,1.99 -1.98,1.99l-51.17 0c-0.28,0 -0.51,-0.23 -0.51,-0.51z"/>
  <path class="fil2" d="M123.88 50.92c0,-1.09 0.88,-1.99 1.98,-1.99l20.04 0c0.28,0 0.51,0.22 0.51,0.5 0,0.28 -0.23,0.49 -0.51,0.49l-20.04 0c-0.55,0 -0.99,0.45 -0.99,1 0,0.55 0.44,0.99 0.99,0.99l16.93 0c0.27,0 0.5,0.22 0.5,0.49 0,0.28 -0.23,0.51 -0.5,0.51l-16.93 0c-1.1,0 -1.98,-0.9 -1.98,-1.99z"/>
  <path class="fil2" d="M117.54 81.14c0,-0.28 0.22,-0.49 0.5,-0.49l51.42 0c0.54,0 0.99,-0.45 0.99,-0.99 0,-0.55 -0.45,-1 -0.99,-1l-48.49 0c-0.26,0 -0.49,-0.22 -0.49,-0.49 0,-0.28 0.23,-0.51 0.49,-0.51l48.49 0c1.08,0 1.98,0.9 1.98,2 0,1.08 -0.9,1.98 -1.98,1.98l-51.42 0c-0.28,0 -0.5,-0.22 -0.5,-0.5z"/>
  <path class="fil2" d="M95.14 79.66c0,-1.1 0.89,-2 1.98,-2l19.77 0c0.28,0 0.5,0.23 0.5,0.51 0,0.27 -0.22,0.49 -0.5,0.49l-19.77 0c-0.55,0 -0.99,0.45 -0.99,1 0,0.54 0.44,0.99 0.99,0.99l16.52 0c0.26,0 0.49,0.21 0.49,0.49 0,0.28 -0.23,0.5 -0.49,0.5l-16.52 0c-1.09,0 -1.98,-0.9 -1.98,-1.98z"/>
  <path class="fil2" d="M65.41 109.39c0,-1.1 0.89,-2 1.99,-2l19.47 0c0.28,0 0.5,0.23 0.5,0.5 0,0.28 -0.22,0.49 -0.5,0.49l-19.47 0c-0.56,0 -0.99,0.45 -0.99,1.01 0,0.54 0.43,0.99 0.99,0.99l16.58 0c0.27,0 0.49,0.21 0.49,0.49 0,0.28 -0.22,0.5 -0.49,0.5l-16.58 0c-1.1,0 -1.99,-0.9 -1.99,-1.98z"/>
  <path class="fil2" d="M87.52 110.87c0,-0.28 0.22,-0.49 0.5,-0.49l52.7 0c0.55,0 1,-0.45 1,-0.99 0,-0.56 -0.45,-1.01 -1,-1.01l-49.61 0c-0.28,0 -0.49,-0.21 -0.49,-0.49 0,-0.27 0.21,-0.5 0.49,-0.5l49.61 0c1.09,0 1.99,0.9 1.99,2 0,1.08 -0.9,1.98 -1.99,1.98l-52.7 0c-0.28,0 -0.5,-0.22 -0.5,-0.5z"/>
  <path class="fil2" d="M57.65 140.6c0,-0.28 0.22,-0.49 0.5,-0.49l50.86 0c0.55,0 1,-0.45 1,-0.99 0,-0.56 -0.45,-1.01 -1,-1.01l-47.8 0c-0.27,0 -0.5,-0.21 -0.5,-0.49 0,-0.28 0.23,-0.5 0.5,-0.5l47.8 0c1.09,0 1.99,0.9 1.99,2 0,1.08 -0.9,1.98 -1.99,1.98l-50.86 0c-0.28,0 -0.5,-0.23 -0.5,-0.5z"/>
  <path class="fil2" d="M36.68 139.12c0,-1.1 0.88,-2 1.98,-2l18.32 0c0.27,0 0.49,0.22 0.49,0.5 0,0.28 -0.22,0.49 -0.49,0.49l-18.32 0c-0.56,0 -0.99,0.45 -0.99,1.01 0,0.54 0.43,0.99 0.99,0.99l15.09 0c0.28,0 0.5,0.21 0.5,0.49 0,0.27 -0.22,0.5 -0.5,0.5l-15.09 0c-1.1,0 -1.98,-0.9 -1.98,-1.98z"/>
  <path class="fil4" d="M49.78 144.18l0.06 -0.08 107.61 -106.79 0.09 -0.06c1.73,-1.05 3.57,0.71 2.92,2.36 -0.02,0.07 -0.06,0.12 -0.1,0.18l-107.84 107c-0.04,0.04 -0.09,0.07 -0.15,0.09 -2.53,1.17 -3.27,-1.69 -2.59,-2.7zm2.13 1.82l0 0 107.63 -106.81 0.02 -0.54c-0.1,-0.37 -0.44,-0.67 -0.85,-0.71l-0.62 0.14 -107.49 106.66c-0.33,0.47 -0.04,1.23 0.61,1.36l0.7 -0.1z"/>
  <path class="fil5" d="M97.82 146.5l103.79 -103.35 9.65 0 -0.01 0.02 42.35 0 0.02 -0.02 8.01 0 -0.01 0.02 46.77 0 -0.87 0.87 0.05 0 -91.67 92.27 -0.05 0 -0.13 0.14 -47.77 0 -10.09 10.05 -9.01 0 9.1 -10.05 -40.36 0 -10.09 10.05 -9.68 0zm67.89 -16.79l0 0 22.05 -21.96 -41.35 0 -22.06 21.96 41.36 0zm47.81 0l0 0 22.06 -21.96 -38.81 0 -22.05 21.96 38.8 0zm-19 -28.7l0 0 22.97 -22.86 -41.36 0 -22.96 22.86 41.35 0zm47.82 0l0 0 22.96 -22.86 -38.8 0 -22.96 22.86 38.8 0zm-18.09 -29.59l0 0 21.59 -21.51 -41.35 0 -21.59 21.51 41.35 0zm47.82 0l0 0 21.59 -21.51 -38.81 0 -21.59 21.51 38.81 0z"/>
  <path class="fil1" d="M215.04 167.35l0 -30.72c0,-0.28 0.21,-0.5 0.49,-0.5 0.28,0 0.5,0.22 0.5,0.5l0 30.72c0,0.28 -0.22,0.49 -0.5,0.49 -0.28,0 -0.49,-0.21 -0.49,-0.49z"/>
  <path class="fil1" d="M215.37 167.51c-0.18,-0.2 -0.18,-0.52 0,-0.71l92.79 -92.78c0.2,-0.2 0.52,-0.2 0.7,0 0.2,0.18 0.2,0.5 0,0.7l-92.77 92.79c-0.2,0.18 -0.52,0.18 -0.72,0z"/>
  <path class="fil1" d="M215.23 136.94c-0.19,-0.2 -0.19,-0.52 0,-0.7l92.67 -92.68c0.18,-0.18 0.5,-0.18 0.7,0 0.18,0.2 0.18,0.52 0,0.7l-92.67 92.68c-0.19,0.18 -0.5,0.18 -0.7,0z"/>
  <path class="fil1" d="M167.41 167.35c0,-0.28 0.23,-0.5 0.49,-0.5l47.3 0c0.28,0 0.5,0.22 0.5,0.5 0,0.28 -0.22,0.49 -0.5,0.49l-47.3 0c-0.26,0 -0.49,-0.21 -0.49,-0.49z"/>
  <path class="fil1" d="M116.94 167.35c0,-0.28 0.21,-0.5 0.49,-0.5l30.65 0c0.28,0 0.51,0.22 0.51,0.5 0,0.28 -0.23,0.49 -0.51,0.49l-30.65 0c-0.28,0 -0.49,-0.21 -0.49,-0.49z"/>
  <path class="fil1" d="M117.11 136.63c0,-0.28 0.23,-0.5 0.49,-0.5l40.51 0c0.28,0 0.5,0.22 0.5,0.5 0,0.28 -0.22,0.49 -0.5,0.49l-40.51 0c-0.26,0 -0.49,-0.21 -0.49,-0.49z"/>
  <path class="fil1" d="M167.58 136.63c0,-0.28 0.23,-0.5 0.51,-0.5l47.44 0c0.28,0 0.5,0.22 0.5,0.5 0,0.28 -0.22,0.49 -0.5,0.49l-47.44 0c-0.28,0 -0.51,-0.21 -0.51,-0.49z"/>
  <path class="fil1" d="M124.12 129.69c0,-0.27 0.21,-0.5 0.49,-0.5l40.52 0c0.27,0 0.5,0.23 0.5,0.5 0,0.28 -0.23,0.49 -0.5,0.49l-40.52 0c-0.28,0 -0.49,-0.21 -0.49,-0.49z"/>
  <path class="fil1" d="M174.68 129.69c0,-0.27 0.22,-0.5 0.5,-0.5l38.37 0c0.28,0 0.5,0.23 0.5,0.5 0,0.28 -0.22,0.49 -0.5,0.49l-38.37 0c-0.28,0 -0.5,-0.21 -0.5,-0.49z"/>
  <path class="fil1" d="M146.02 107.89c0,-0.27 0.23,-0.5 0.49,-0.5l40.4 0c0.27,0 0.49,0.23 0.49,0.5 0,0.28 -0.22,0.49 -0.49,0.49l-40.4 0c-0.26,0 -0.49,-0.21 -0.49,-0.49z"/>
  <path class="fil1" d="M196.81 107.89c0,-0.27 0.23,-0.5 0.5,-0.5l38.04 0c0.28,0 0.5,0.23 0.5,0.5 0,0.28 -0.22,0.49 -0.5,0.49l-38.04 0c-0.27,0 -0.5,-0.21 -0.5,-0.49z"/>
  <path class="fil1" d="M153.08 100.96c0,-0.28 0.22,-0.5 0.49,-0.5l40.29 0c0.28,0 0.51,0.22 0.51,0.5 0,0.28 -0.23,0.49 -0.51,0.49l-40.29 0c-0.27,0 -0.49,-0.21 -0.49,-0.49z"/>
  <path class="fil1" d="M203.65 100.96c0,-0.28 0.23,-0.5 0.51,-0.5l38.07 0c0.28,0 0.51,0.22 0.51,0.5 0,0.28 -0.23,0.49 -0.51,0.49l-38.07 0c-0.28,0 -0.51,-0.21 -0.51,-0.49z"/>
  <path class="fil1" d="M176.11 78.17c0,-0.28 0.22,-0.51 0.5,-0.51l40.44 0c0.28,0 0.5,0.23 0.5,0.51 0,0.27 -0.22,0.49 -0.5,0.49l-40.44 0c-0.28,0 -0.5,-0.22 -0.5,-0.49z"/>
  <path class="fil1" d="M226.91 78.17c0,-0.28 0.22,-0.51 0.49,-0.51l37.68 0c0.28,0 0.5,0.23 0.5,0.51 0,0.27 -0.22,0.49 -0.5,0.49l-37.68 0c-0.27,0 -0.49,-0.22 -0.49,-0.49z"/>
  <path class="fil1" d="M183.27 71.23c0,-0.28 0.22,-0.5 0.5,-0.5l40.22 0c0.26,0 0.49,0.22 0.49,0.5 0,0.28 -0.23,0.49 -0.49,0.49l-40.22 0c-0.28,0 -0.5,-0.21 -0.5,-0.49z"/>
  <path class="fil1" d="M233.58 71.23c0,-0.28 0.22,-0.5 0.5,-0.5l37.93 0c0.28,0 0.51,0.22 0.51,0.5 0,0.28 -0.23,0.49 -0.51,0.49l-37.93 0c-0.28,0 -0.5,-0.21 -0.5,-0.49z"/>
  <path class="fil1" d="M308.19 74.2l0 -30.72c0,-0.27 0.21,-0.5 0.49,-0.5 0.28,0 0.5,0.23 0.5,0.5l0 30.72c0,0.28 -0.22,0.49 -0.5,0.49 -0.28,0 -0.49,-0.21 -0.49,-0.49z"/>
  <path class="fil1" d="M205.13 49.43c0,-0.28 0.23,-0.5 0.51,-0.5l40.48 0c0.28,0 0.5,0.22 0.5,0.5 0,0.28 -0.22,0.49 -0.5,0.49l-40.48 0c-0.28,0 -0.51,-0.21 -0.51,-0.49z"/>
  <path class="fil1" d="M255.78 49.43c0,-0.28 0.22,-0.5 0.49,-0.5l37.55 0c0.27,0 0.5,0.22 0.5,0.5 0,0.28 -0.23,0.49 -0.5,0.49l-37.55 0c-0.27,0 -0.49,-0.21 -0.49,-0.49z"/>
  <path class="fil1" d="M201.69 43.48c0,-0.27 0.22,-0.5 0.5,-0.5l106.49 0c0.28,0 0.5,0.23 0.5,0.5 0,0.28 -0.22,0.49 -0.5,0.49l-106.49 0c-0.28,0 -0.5,-0.21 -0.5,-0.49z"/>
  <path class="fil1" d="M233.88 71.42c-0.19,-0.2 -0.19,-0.52 0,-0.7l21.76 -21.57c0.2,-0.2 0.52,-0.2 0.71,0 0.19,0.2 0.19,0.51 0,0.7l-21.77 21.57c-0.19,0.19 -0.51,0.18 -0.7,0z"/>
  <path class="fil1" d="M203.75 101.28c-0.19,-0.2 -0.19,-0.52 0.01,-0.7l22.95 -22.76c0.2,-0.19 0.5,-0.19 0.7,0 0.2,0.2 0.19,0.52 0,0.7l-22.96 22.76c-0.19,0.18 -0.5,0.18 -0.7,0z"/>
  <path class="fil1" d="M174.77 129.99c-0.2,-0.2 -0.2,-0.52 0,-0.7l21.89 -21.7c0.19,-0.18 0.51,-0.18 0.71,0.01 0.18,0.19 0.18,0.51 -0.02,0.7l-21.88 21.69c-0.2,0.19 -0.51,0.18 -0.7,0z"/>
  <path class="fil1" d="M157.7 146.88c-0.18,-0.18 -0.18,-0.5 0.02,-0.7l9.97 -9.88c0.19,-0.18 0.5,-0.18 0.7,0.01 0.19,0.19 0.19,0.51 -0.01,0.7l-9.98 9.89c-0.18,0.18 -0.5,0.18 -0.7,-0.02z"/>
  <path class="fil1" d="M147.66 146.54c0,-0.28 0.21,-0.5 0.49,-0.5l9.91 0c0.28,0 0.5,0.22 0.5,0.5 0,0.28 -0.22,0.49 -0.5,0.49l-9.91 0c-0.28,0 -0.49,-0.21 -0.49,-0.49z"/>
  <path class="fil1" d="M147.79 146.88c-0.18,-0.18 -0.18,-0.5 0.02,-0.7l9.6 -9.52c0.2,-0.19 0.52,-0.19 0.7,0.01 0.2,0.19 0.2,0.5 0,0.7l-9.62 9.53c-0.18,0.18 -0.5,0.18 -0.7,-0.02z"/>
  <path class="fil1" d="M164.86 129.99c-0.19,-0.2 -0.19,-0.52 0,-0.7l21.88 -21.69c0.2,-0.19 0.52,-0.19 0.7,0 0.2,0.2 0.2,0.51 0,0.7l-21.88 21.69c-0.2,0.19 -0.51,0.18 -0.7,0z"/>
  <path class="fil1" d="M193.81 101.29c-0.18,-0.19 -0.18,-0.5 0,-0.7l22.92 -22.7c0.19,-0.19 0.51,-0.19 0.7,0.01 0.19,0.19 0.19,0.5 -0.01,0.7l-22.91 22.7c-0.2,0.19 -0.5,0.19 -0.7,-0.01z"/>
  <path class="fil1" d="M223.86 71.53c-0.2,-0.19 -0.2,-0.51 0,-0.7l21.92 -21.72c0.19,-0.19 0.51,-0.19 0.7,0 0.19,0.2 0.19,0.51 0,0.7l-21.92 21.72c-0.2,0.2 -0.52,0.19 -0.7,0z"/>
  <path class="fil1" d="M255.67 71.12l0 -21.69c0,-0.28 0.21,-0.5 0.49,-0.5 0.28,0 0.5,0.22 0.5,0.5l0 21.69c0,0.28 -0.22,0.51 -0.5,0.51 -0.28,0 -0.49,-0.23 -0.49,-0.51z"/>
  <path class="fil1" d="M147.66 177.26c0,-0.28 0.21,-0.5 0.49,-0.5l9.71 0 9.82 -9.71c0.18,-0.2 0.5,-0.19 0.7,0 0.18,0.19 0.18,0.51 -0.02,0.7l-9.96 9.87c-0.09,0.09 -0.21,0.13 -0.34,0.13l-9.91 0c-0.28,0 -0.49,-0.21 -0.49,-0.49z"/>
  <path class="fil1" d="M147.66 177.26l0 -30.72c0,-0.28 0.21,-0.5 0.49,-0.5 0.28,0 0.5,0.22 0.5,0.5l0 30.72c0,0.28 -0.22,0.49 -0.5,0.49 -0.28,0 -0.49,-0.21 -0.49,-0.49z"/>
  <path class="fil1" d="M157.57 177.26l0 -30.72c0,-0.28 0.21,-0.5 0.49,-0.5 0.28,0 0.5,0.22 0.5,0.5l0 30.72c0,0.28 -0.22,0.49 -0.5,0.49 -0.28,0 -0.49,-0.21 -0.49,-0.49z"/>
  <path class="fil1" d="M226.93 101l0 -22.83c0,-0.28 0.22,-0.51 0.49,-0.51 0.28,0 0.51,0.23 0.51,0.51l0 22.83c0,0.26 -0.23,0.49 -0.51,0.49 -0.27,0 -0.49,-0.23 -0.49,-0.49z"/>
  <path class="fil1" d="M196.22 129.18l0 -20.88c0,-0.26 0.21,-0.48 0.48,-0.48 0.28,0 0.51,0.22 0.51,0.48l0 20.88c0,0.28 -0.23,0.49 -0.51,0.49 -0.27,0 -0.48,-0.21 -0.48,-0.49z"/>
  <path class="fil1" d="M167.48 167.35l0 -30.3c0,-0.27 0.21,-0.5 0.49,-0.5 0.28,0 0.5,0.23 0.5,0.5l0 30.3c0,0.28 -0.22,0.49 -0.5,0.49 -0.28,0 -0.49,-0.21 -0.49,-0.49z"/>
  <path class="fil1" d="M183.29 71.48c-0.18,-0.2 -0.18,-0.5 0.02,-0.7l21.9 -21.71c0.2,-0.18 0.52,-0.18 0.7,0.02 0.2,0.18 0.2,0.5 0,0.7l-21.92 21.69c-0.18,0.2 -0.5,0.2 -0.7,0z"/>
  <path class="fil1" d="M153.29 101.21c-0.2,-0.19 -0.2,-0.5 0,-0.7l22.9 -22.67c0.18,-0.19 0.5,-0.19 0.7,0 0.18,0.19 0.18,0.51 -0.02,0.7l-22.88 22.68c-0.2,0.19 -0.52,0.19 -0.7,-0.01z"/>
  <path class="fil1" d="M124.17 130.05c-0.19,-0.2 -0.19,-0.51 0,-0.7l22.05 -21.84c0.2,-0.2 0.52,-0.2 0.7,0 0.2,0.2 0.2,0.52 0,0.7l-22.05 21.84c-0.2,0.2 -0.5,0.19 -0.7,0z"/>
  <path class="fil1" d="M97.27 146.18l104.05 -103.05c0.18,-0.19 0.5,-0.19 0.7,0.01 0.18,0.19 0.18,0.5 -0.02,0.7l-103.19 102.2 8.51 0 9.78 -9.69c0.2,-0.19 0.52,-0.19 0.7,0 0.2,0.2 0.2,0.51 0,0.7l-9.93 9.85c-0.1,0.09 -0.22,0.13 -0.35,0.13l-9.91 0c-0.43,0 -0.66,-0.53 -0.34,-0.85z"/>
  <path class="fil1" d="M205.13 71.23l0 -21.8c0,-0.28 0.22,-0.5 0.49,-0.5 0.28,0 0.5,0.22 0.5,0.5l0 21.8c0,0.28 -0.22,0.49 -0.5,0.49 -0.27,0 -0.49,-0.21 -0.49,-0.49z"/>
  <path class="fil1" d="M97.12 178.25c0,-0.28 0.22,-0.5 0.49,-0.5l9.7 0 9.8 -10.69c0.19,-0.2 0.51,-0.21 0.7,-0.03 0.22,0.19 0.23,0.51 0.04,0.7l-9.96 10.85c-0.09,0.11 -0.22,0.16 -0.37,0.16l-9.91 0c-0.27,0 -0.49,-0.21 -0.49,-0.49z"/>
  <path class="fil1" d="M97.12 178.25l0 -31.71c0,-0.28 0.22,-0.5 0.49,-0.5 0.28,0 0.5,0.22 0.5,0.5l0 31.71c0,0.28 -0.22,0.49 -0.5,0.49 -0.27,0 -0.49,-0.21 -0.49,-0.49z"/>
  <path class="fil1" d="M107.03 178.25l0 -31.71c0,-0.28 0.21,-0.5 0.49,-0.5 0.28,0 0.5,0.22 0.5,0.5l0 31.71c0,0.28 -0.22,0.49 -0.5,0.49 -0.28,0 -0.49,-0.21 -0.49,-0.49z"/>
  <path class="fil1" d="M176.4 100.55l0 -22.38c0,-0.28 0.21,-0.51 0.49,-0.51 0.27,0 0.5,0.23 0.5,0.51l0 22.38c0,0.26 -0.23,0.49 -0.5,0.49 -0.28,0 -0.49,-0.23 -0.49,-0.49z"/>
  <path class="fil1" d="M145.68 129.29l0 -20.87c0,-0.27 0.21,-0.5 0.49,-0.5 0.28,0 0.5,0.23 0.5,0.5l0 20.87c0,0.26 -0.22,0.48 -0.5,0.48 -0.28,0 -0.49,-0.22 -0.49,-0.48z"/>
  <path class="fil1" d="M116.94 167.35l0 -30.57c0,-0.28 0.21,-0.51 0.49,-0.51 0.28,0 0.5,0.23 0.5,0.51l0 30.57c0,0.28 -0.22,0.49 -0.5,0.49 -0.28,0 -0.49,-0.21 -0.49,-0.49z"/>
  <path class="fil5" d="M204.59 43.42c-5.69,0.34 -8.16,-4.23 -7.87,-8.56 0.3,-4.68 3.78,-10.28 7.87,-15.22 4.1,4.94 7.56,10.54 7.88,15.22 0.29,4.33 -2.18,8.9 -7.88,8.56z"/>
  <path class="fil4" d="M196.22 34.83c0.33,-4.85 3.89,-10.56 7.99,-15.5 0.17,-0.21 0.49,-0.25 0.7,-0.06 0.21,0.17 0.24,0.47 0.07,0.68 -4.1,4.95 -7.47,10.44 -7.77,14.95 -0.28,4.07 1.99,8.35 7.36,8.03 0.26,-0.01 0.5,0.18 0.51,0.46 0.01,0.28 -0.18,0.52 -0.46,0.53 -6.04,0.36 -8.71,-4.52 -8.4,-9.09z"/>
  <path class="fil4" d="M204.57 43.92c-0.28,-0.01 -0.49,-0.25 -0.48,-0.53 0.03,-0.28 0.25,-0.47 0.53,-0.46 5.35,0.32 7.62,-3.98 7.36,-8.03 -0.31,-4.51 -3.69,-10 -7.77,-14.95 -0.17,-0.21 -0.15,-0.51 0.07,-0.68 0.21,-0.19 0.51,-0.15 0.7,0.06 4.08,4.94 7.66,10.65 7.99,15.5 0.3,4.59 -2.37,9.45 -8.4,9.09z"/>
  <path class="fil5" d="M174.86 73.15c-5.69,0.34 -8.16,-4.23 -7.87,-8.57 0.3,-4.67 3.78,-10.27 7.87,-15.22 4.1,4.95 7.56,10.55 7.88,15.22 0.29,4.34 -2.18,8.91 -7.88,8.57z"/>
  <path class="fil4" d="M166.49 64.56c0.33,-4.85 3.9,-10.56 7.99,-15.5 0.17,-0.21 0.49,-0.25 0.7,-0.07 0.21,0.18 0.24,0.48 0.07,0.69 -4.1,4.94 -7.47,10.44 -7.77,14.94 -0.28,4.07 1.99,8.35 7.36,8.04 0.26,-0.02 0.5,0.18 0.51,0.46 0.02,0.28 -0.18,0.52 -0.46,0.53 -6.04,0.36 -8.71,-4.52 -8.4,-9.09z"/>
  <path class="fil4" d="M174.84 73.65c-0.28,-0.01 -0.49,-0.25 -0.48,-0.53 0.03,-0.28 0.25,-0.48 0.53,-0.46 5.35,0.31 7.62,-3.98 7.36,-8.04 -0.3,-4.5 -3.69,-10 -7.77,-14.94 -0.17,-0.21 -0.14,-0.51 0.07,-0.69 0.21,-0.18 0.51,-0.14 0.7,0.07 4.08,4.94 7.66,10.65 7.99,15.5 0.31,4.58 -2.36,9.45 -8.4,9.09z"/>
  <path class="fil5" d="M144.15 102.87c-5.7,0.35 -8.17,-4.22 -7.88,-8.56 0.31,-4.67 3.78,-10.28 7.88,-15.22 4.09,4.94 7.55,10.55 7.87,15.22 0.29,4.34 -2.18,8.91 -7.87,8.56z"/>
  <path class="fil4" d="M135.77 94.29c0.33,-4.85 3.9,-10.56 7.99,-15.5 0.17,-0.21 0.49,-0.25 0.7,-0.07 0.21,0.17 0.24,0.48 0.07,0.69 -4.1,4.94 -7.47,10.44 -7.77,14.94 -0.28,4.07 2,8.35 7.36,8.04 0.26,-0.02 0.5,0.18 0.52,0.46 0.01,0.28 -0.19,0.51 -0.47,0.53 -6.04,0.35 -8.7,-4.52 -8.4,-9.09z"/>
  <path class="fil4" d="M144.12 103.38c-0.28,-0.02 -0.49,-0.25 -0.48,-0.53 0.03,-0.28 0.26,-0.48 0.53,-0.46 5.35,0.31 7.63,-3.98 7.36,-8.04 -0.3,-4.5 -3.68,-10 -7.77,-14.94 -0.17,-0.21 -0.14,-0.52 0.07,-0.69 0.21,-0.18 0.51,-0.14 0.7,0.07 4.08,4.94 7.66,10.65 7.99,15.5 0.31,4.58 -2.36,9.44 -8.4,9.09z"/>
  <path class="fil5" d="M114.42 132.6c-5.7,0.35 -8.17,-4.23 -7.88,-8.56 0.31,-4.68 3.78,-10.28 7.88,-15.22 4.09,4.94 7.56,10.54 7.87,15.22 0.29,4.33 -2.18,8.91 -7.87,8.56z"/>
  <path class="fil4" d="M106.04 124.01c0.33,-4.84 3.9,-10.55 8,-15.49 0.17,-0.22 0.48,-0.26 0.7,-0.07 0.21,0.17 0.23,0.48 0.06,0.69 -4.09,4.94 -7.46,10.43 -7.77,14.94 -0.27,4.07 2,8.35 7.36,8.03 0.27,-0.01 0.5,0.19 0.52,0.47 0.01,0.27 -0.19,0.51 -0.46,0.52 -6.04,0.36 -8.71,-4.51 -8.41,-9.09z"/>
  <path class="fil4" d="M114.39 133.1c-0.28,-0.01 -0.49,-0.25 -0.47,-0.52 0.02,-0.28 0.25,-0.48 0.53,-0.47 5.35,0.32 7.62,-3.97 7.35,-8.03 -0.3,-4.51 -3.68,-10 -7.76,-14.94 -0.18,-0.21 -0.15,-0.52 0.06,-0.69 0.21,-0.19 0.52,-0.15 0.7,0.07 4.08,4.94 7.66,10.65 8,15.49 0.3,4.59 -2.37,9.45 -8.41,9.09z"/>
  <path class="fil1" d="M271.64 71.6c-0.18,-0.2 -0.18,-0.51 0,-0.7l21.71 -21.71c0.2,-0.2 0.5,-0.2 0.7,0 0.2,0.2 0.2,0.5 0,0.7l-21.7 21.71c-0.19,0.19 -0.51,0.19 -0.71,0z"/>
  <path class="fil1" d="M241.98 101.26c-0.19,-0.2 -0.19,-0.5 0,-0.7l22.66 -22.66c0.19,-0.18 0.5,-0.18 0.7,0 0.19,0.2 0.19,0.52 0,0.7l-22.66 22.66c-0.19,0.2 -0.5,0.2 -0.7,0z"/>
  <path class="fil1" d="M213.35 129.89c-0.2,-0.18 -0.2,-0.5 0,-0.7l21.58 -21.57c0.18,-0.19 0.5,-0.19 0.7,0 0.18,0.2 0.18,0.51 0,0.7l-21.58 21.57c-0.2,0.2 -0.51,0.2 -0.7,0z"/>
  <path class="fil2" d="M80.86 131.68c0,-0.28 0.22,-0.51 0.49,-0.51l6.56 0c0.28,0 0.51,0.23 0.51,0.51 0,0.27 -0.23,0.49 -0.51,0.49l-6.56 0c-0.27,0 -0.49,-0.22 -0.49,-0.49z"/>
  <path class="fil1" d="M97.12 137.64l0 -5.96c0,-0.28 0.22,-0.51 0.49,-0.51 0.28,0 0.5,0.23 0.5,0.51l0 5.96c0,0.26 -0.22,0.48 -0.5,0.48 -0.27,0 -0.49,-0.22 -0.49,-0.48z"/>
  <path class="fil6" d="M14.41 209.68c0.56,0 1.05,-0.06 1.5,-0.18 0.43,-0.13 0.83,-0.32 1.19,-0.54 0.35,-0.24 0.7,-0.52 1.01,-0.85l-0.68 -0.73c-0.29,0.28 -0.6,0.53 -0.89,0.73 -0.3,0.2 -0.62,0.34 -0.96,0.45 -0.35,0.11 -0.73,0.16 -1.14,0.16 -0.51,0 -0.99,-0.11 -1.43,-0.29 -0.42,-0.2 -0.8,-0.47 -1.13,-0.82 -0.32,-0.35 -0.57,-0.75 -0.76,-1.2 -0.17,-0.47 -0.26,-0.97 -0.26,-1.51 0,-0.54 0.09,-1.04 0.26,-1.51 0.19,-0.46 0.44,-0.86 0.76,-1.21 0.32,-0.35 0.7,-0.61 1.13,-0.81 0.44,-0.18 0.92,-0.29 1.43,-0.29 0.41,0 0.79,0.05 1.14,0.17 0.34,0.11 0.66,0.25 0.95,0.44 0.28,0.2 0.55,0.41 0.82,0.66l0.68 -0.74c-0.3,-0.29 -0.63,-0.56 -0.96,-0.77 -0.34,-0.22 -0.73,-0.41 -1.15,-0.53 -0.42,-0.13 -0.91,-0.19 -1.47,-0.19 -0.68,0 -1.3,0.13 -1.87,0.38 -0.58,0.25 -1.07,0.59 -1.49,1.03 -0.41,0.44 -0.74,0.94 -0.97,1.52 -0.22,0.58 -0.34,1.19 -0.34,1.85 0,0.67 0.12,1.31 0.34,1.88 0.24,0.58 0.56,1.08 0.97,1.52 0.42,0.43 0.91,0.77 1.47,1.01 0.56,0.24 1.18,0.37 1.85,0.37z"/>
  <polygon class="fil6" points="21.42,209.52 22.43,209.52 22.43,203.59 24.88,203.59 24.88,202.69 18.97,202.69 18.97,203.59 21.42,203.59 "/>
  <path class="fil6" d="M29.36 209.68c0.42,0 0.8,-0.05 1.15,-0.16 0.33,-0.1 0.64,-0.26 0.91,-0.45 0.28,-0.18 0.51,-0.4 0.75,-0.67l-0.63 -0.57c-0.28,0.29 -0.6,0.53 -0.94,0.7 -0.34,0.17 -0.75,0.27 -1.22,0.27 -0.41,0 -0.78,-0.1 -1.13,-0.27 -0.35,-0.18 -0.62,-0.43 -0.86,-0.78 -0.23,-0.34 -0.36,-0.75 -0.41,-1.23l5.42 0c0,-0.07 0,-0.14 0.01,-0.19 0,-0.07 0,-0.12 0,-0.16 0,-0.5 -0.08,-0.98 -0.22,-1.42 -0.14,-0.43 -0.35,-0.82 -0.61,-1.15 -0.28,-0.33 -0.61,-0.59 -1.01,-0.77 -0.39,-0.19 -0.84,-0.28 -1.34,-0.28 -0.48,0 -0.92,0.09 -1.31,0.28 -0.41,0.18 -0.76,0.43 -1.05,0.76 -0.29,0.32 -0.51,0.7 -0.68,1.14 -0.16,0.42 -0.24,0.88 -0.24,1.38 0,0.53 0.09,1.02 0.26,1.46 0.17,0.43 0.43,0.82 0.73,1.12 0.32,0.32 0.67,0.57 1.08,0.73 0.43,0.17 0.86,0.26 1.34,0.26zm-2.38 -3.97l0 0c0.05,-0.45 0.17,-0.85 0.37,-1.19 0.21,-0.35 0.46,-0.61 0.78,-0.81 0.32,-0.2 0.67,-0.3 1.07,-0.3 0.33,0 0.63,0.06 0.88,0.18 0.27,0.12 0.48,0.29 0.66,0.5 0.19,0.22 0.32,0.45 0.43,0.73 0.1,0.28 0.17,0.57 0.21,0.89l-4.4 0z"/>
  <polygon class="fil6" points="34.18,209.52 35.2,209.52 35.2,207.87 36.64,206.39 39.07,209.52 40.27,209.52 37.34,205.65 40.19,202.69 38.94,202.69 35.2,206.63 35.2,202.69 34.18,202.69 "/>
  <path class="fil6" d="M41.34 209.63c0.23,0 0.42,-0.01 0.62,-0.07 0.2,-0.04 0.37,-0.13 0.54,-0.27 0.18,-0.14 0.32,-0.33 0.47,-0.6 0.13,-0.26 0.23,-0.62 0.34,-1.04 0.09,-0.44 0.17,-0.98 0.21,-1.61 0.05,-0.64 0.08,-1.4 0.08,-2.29l0 -0.16 2.85 0 0 5.93 1.02 0 0 -6.83 -4.83 0 0 0.57c0,0.85 -0.02,1.59 -0.06,2.19 -0.04,0.6 -0.08,1.11 -0.14,1.51 -0.08,0.41 -0.16,0.73 -0.24,0.97 -0.09,0.23 -0.2,0.42 -0.32,0.54 -0.1,0.12 -0.22,0.2 -0.35,0.22 -0.12,0.04 -0.25,0.05 -0.4,0.05 -0.07,0 -0.15,-0.01 -0.24,-0.02 -0.09,-0.03 -0.17,-0.04 -0.25,-0.07l-0.12 0.87c0.08,0.02 0.16,0.04 0.27,0.06 0.09,0.01 0.19,0.02 0.29,0.04 0.1,0.01 0.18,0.01 0.26,0.01z"/>
  <path class="fil6" d="M52.86 209.68c0.52,0 0.99,-0.1 1.43,-0.29 0.44,-0.18 0.82,-0.43 1.14,-0.76 0.31,-0.33 0.56,-0.72 0.75,-1.14 0.17,-0.44 0.26,-0.89 0.26,-1.38 0,-0.48 -0.09,-0.95 -0.26,-1.38 -0.17,-0.42 -0.42,-0.81 -0.74,-1.13 -0.32,-0.33 -0.7,-0.59 -1.12,-0.77 -0.44,-0.19 -0.92,-0.28 -1.43,-0.28 -0.52,0 -0.99,0.1 -1.43,0.29 -0.43,0.18 -0.8,0.43 -1.12,0.76 -0.33,0.33 -0.57,0.72 -0.75,1.14 -0.18,0.44 -0.27,0.89 -0.27,1.37 0,0.49 0.09,0.96 0.27,1.39 0.17,0.43 0.42,0.81 0.74,1.13 0.31,0.33 0.68,0.59 1.12,0.77 0.42,0.19 0.9,0.28 1.41,0.28zm0.03 -0.91l0 0c-0.36,0 -0.7,-0.07 -1.01,-0.21 -0.3,-0.13 -0.56,-0.33 -0.79,-0.57 -0.22,-0.24 -0.41,-0.53 -0.53,-0.84 -0.13,-0.32 -0.19,-0.66 -0.19,-1.04 0,-0.36 0.06,-0.71 0.18,-1.03 0.12,-0.33 0.29,-0.6 0.52,-0.85 0.21,-0.24 0.47,-0.44 0.78,-0.57 0.3,-0.13 0.64,-0.21 1.01,-0.21 0.37,0 0.7,0.08 1.01,0.21 0.3,0.13 0.58,0.33 0.8,0.57 0.23,0.25 0.41,0.52 0.53,0.85 0.13,0.32 0.2,0.67 0.2,1.03 0,0.38 -0.07,0.72 -0.19,1.04 -0.11,0.31 -0.29,0.6 -0.51,0.84 -0.23,0.24 -0.49,0.44 -0.79,0.57 -0.31,0.14 -0.65,0.21 -1.02,0.21z"/>
  <polygon class="fil6" points="58.28,209.52 59.3,209.52 59.3,206.54 63.23,206.54 63.23,209.52 64.25,209.52 64.25,202.69 63.23,202.69 63.23,205.64 59.3,205.64 59.3,202.69 58.28,202.69 "/>
  <polygon class="fil6" points="66.52,209.52 67.5,209.52 71.57,204.12 71.57,209.52 72.59,209.52 72.59,202.69 71.6,202.69 67.54,208.1 67.54,202.69 66.52,202.69 "/>
  <polygon class="fil6" points="76.51,209.52 77.54,209.52 77.54,203.59 79.99,203.59 79.99,202.69 74.07,202.69 74.07,203.59 76.51,203.59 "/>
  <path class="fil6" d="M81.47 209.52l2.96 0c0.53,0 0.97,-0.09 1.36,-0.27 0.38,-0.18 0.68,-0.44 0.9,-0.77 0.21,-0.33 0.31,-0.73 0.31,-1.18 0,-0.35 -0.08,-0.67 -0.21,-0.92 -0.14,-0.27 -0.33,-0.48 -0.58,-0.63 -0.25,-0.18 -0.53,-0.3 -0.86,-0.37 -0.32,-0.08 -0.67,-0.12 -1.04,-0.12l-1.83 0 0 -2.57 -1.01 0 0 6.83zm1.01 -0.89l0 0 0 -2.5 1.81 0c0.53,0 0.94,0.1 1.23,0.3 0.29,0.2 0.45,0.5 0.45,0.9 0,0.42 -0.14,0.75 -0.43,0.97 -0.29,0.22 -0.69,0.33 -1.21,0.33l-1.85 0z"/>
  <path class="fil1" d="M174.4 212.5l0 -79.28c0,-0.27 0.23,-0.49 0.5,-0.49 0.27,0 0.49,0.22 0.49,0.49l0 78.79 149.65 0c0.26,0 0.48,0.21 0.48,0.49 0,0.27 -0.22,0.5 -0.48,0.5l-150.14 0c-0.27,0 -0.5,-0.23 -0.5,-0.5z"/>
  <path class="fil1" d="M7.44 212.5c0,-0.28 0.22,-0.49 0.5,-0.49l83.22 0 0 -58.97c0,-0.28 0.23,-0.49 0.51,-0.49 0.27,0 0.49,0.21 0.49,0.49l0 59.46c0,0.27 -0.22,0.5 -0.49,0.5l-83.73 0c-0.28,0 -0.5,-0.23 -0.5,-0.5z"/>
  <path class="fil7" d="M175.41 207.04l0 -62.42c0,-0.27 0.21,-0.5 0.49,-0.5 0.27,0 0.5,0.23 0.5,0.5l0 62.42c0,0.28 -0.23,0.5 -0.5,0.5 -0.28,0 -0.49,-0.22 -0.49,-0.5z"/>
  <path class="fil7" d="M173.42 207.04l0 -63.41c0,-0.27 0.22,-0.5 0.49,-0.5 0.28,0 0.51,0.23 0.51,0.5l0 63.41c0,0.28 -0.23,0.5 -0.51,0.5 -0.27,0 -0.49,-0.22 -0.49,-0.5z"/>
  <path class="fil6" d="M179.4 209.51l1.04 0 0 -3.26 2.25 0c0.5,0 0.96,-0.07 1.4,-0.2 0.43,-0.13 0.82,-0.32 1.15,-0.57 0.34,-0.25 0.6,-0.57 0.79,-0.95 0.18,-0.37 0.29,-0.82 0.29,-1.31 0,-0.62 -0.15,-1.15 -0.44,-1.6 -0.27,-0.43 -0.68,-0.78 -1.2,-1 -0.51,-0.24 -1.12,-0.36 -1.82,-0.36l-3.46 0 0 9.25zm1.04 -4.21l0 0 0 -4.07 2.34 0c0.5,0 0.94,0.06 1.31,0.22 0.37,0.15 0.66,0.37 0.86,0.67 0.21,0.3 0.31,0.67 0.31,1.11 0,0.41 -0.1,0.78 -0.31,1.09 -0.22,0.3 -0.51,0.54 -0.89,0.71 -0.37,0.17 -0.82,0.25 -1.33,0.27l-2.29 0z"/>
  <path class="fil6" d="M190.09 209.66c0.39,-0.02 0.75,-0.07 1.07,-0.18 0.3,-0.1 0.58,-0.25 0.8,-0.42 0.23,-0.17 0.42,-0.37 0.58,-0.57l0 1.02 1.01 0 0 -4.17c0,-0.44 -0.07,-0.82 -0.19,-1.17 -0.1,-0.33 -0.29,-0.61 -0.53,-0.84 -0.25,-0.25 -0.55,-0.44 -0.92,-0.57 -0.37,-0.13 -0.79,-0.19 -1.28,-0.19 -0.33,0 -0.64,0.02 -0.93,0.07 -0.28,0.05 -0.54,0.12 -0.8,0.21 -0.25,0.08 -0.51,0.19 -0.76,0.31l0.31 0.83c0.31,-0.16 0.63,-0.28 0.97,-0.36 0.33,-0.09 0.71,-0.13 1.1,-0.13 0.65,0 1.15,0.14 1.49,0.46 0.35,0.32 0.53,0.78 0.53,1.39l0 0.21c-0.2,-0.07 -0.41,-0.12 -0.62,-0.16 -0.21,-0.04 -0.43,-0.08 -0.67,-0.1 -0.24,-0.02 -0.5,-0.03 -0.79,-0.03 -0.59,0 -1.09,0.08 -1.52,0.25 -0.44,0.17 -0.78,0.41 -1.03,0.74 -0.24,0.34 -0.37,0.75 -0.37,1.24 0,0.36 0.07,0.66 0.22,0.94 0.13,0.26 0.33,0.49 0.57,0.67 0.25,0.18 0.51,0.31 0.82,0.4 0.3,0.09 0.62,0.15 0.94,0.15zm0.19 -0.82l0 0c-0.31,0 -0.59,-0.07 -0.86,-0.17 -0.25,-0.11 -0.46,-0.26 -0.62,-0.47 -0.15,-0.2 -0.23,-0.45 -0.23,-0.72 0,-0.29 0.08,-0.53 0.23,-0.74 0.16,-0.22 0.39,-0.37 0.68,-0.49 0.3,-0.12 0.66,-0.17 1.08,-0.17 0.42,0 0.79,0.02 1.12,0.09 0.33,0.05 0.63,0.12 0.88,0.2l0 0.63c0,0.36 -0.11,0.67 -0.31,0.95 -0.21,0.28 -0.47,0.49 -0.82,0.65 -0.34,0.14 -0.72,0.22 -1.15,0.24z"/>
  <path class="fil6" d="M198.91 209.67c0.52,-0.01 0.98,-0.11 1.4,-0.29 0.42,-0.19 0.79,-0.44 1.11,-0.75 0.32,-0.33 0.56,-0.7 0.73,-1.13 0.17,-0.42 0.26,-0.87 0.26,-1.35 0,-0.47 -0.09,-0.91 -0.26,-1.32 -0.17,-0.41 -0.4,-0.78 -0.7,-1.08 -0.31,-0.32 -0.65,-0.55 -1.05,-0.73 -0.39,-0.17 -0.81,-0.26 -1.26,-0.26 -0.49,0 -0.92,0.07 -1.27,0.2 -0.37,0.13 -0.68,0.31 -0.94,0.53 -0.25,0.22 -0.46,0.47 -0.62,0.75 0.04,-0.44 0.12,-0.82 0.25,-1.14 0.13,-0.31 0.34,-0.58 0.62,-0.8 0.28,-0.21 0.66,-0.37 1.12,-0.49l3.7 -0.91 -0.2 -0.86 -3.8 0.9c-0.6,0.14 -1.06,0.37 -1.4,0.68 -0.34,0.32 -0.6,0.7 -0.77,1.14 -0.16,0.45 -0.26,0.92 -0.31,1.44 -0.06,0.53 -0.07,1.07 -0.07,1.62 0,0.8 0.15,1.48 0.44,2.05 0.29,0.57 0.68,1.02 1.2,1.32 0.53,0.31 1.12,0.47 1.82,0.48zm0.03 -0.91l0 0c-0.35,-0.02 -0.66,-0.08 -0.97,-0.21 -0.29,-0.14 -0.55,-0.32 -0.76,-0.55 -0.23,-0.23 -0.4,-0.51 -0.53,-0.81 -0.12,-0.32 -0.19,-0.65 -0.19,-1.01 0,-0.37 0.07,-0.7 0.19,-1 0.12,-0.32 0.28,-0.6 0.49,-0.82 0.22,-0.24 0.47,-0.43 0.76,-0.56 0.31,-0.13 0.62,-0.2 0.98,-0.2 0.34,0 0.68,0.07 0.97,0.2 0.29,0.13 0.55,0.32 0.78,0.56 0.21,0.22 0.38,0.5 0.51,0.82 0.12,0.3 0.19,0.63 0.19,1 0,0.36 -0.07,0.69 -0.18,1.01 -0.12,0.3 -0.29,0.58 -0.5,0.81 -0.22,0.23 -0.47,0.41 -0.76,0.55 -0.3,0.13 -0.63,0.19 -0.98,0.21z"/>
  <path class="fil6" d="M207.37 209.67c0.51,-0.01 0.99,-0.11 1.42,-0.29 0.44,-0.19 0.82,-0.45 1.14,-0.78 0.32,-0.33 0.57,-0.7 0.75,-1.14 0.18,-0.42 0.27,-0.88 0.27,-1.36 0,-0.5 -0.09,-0.96 -0.27,-1.39 -0.17,-0.42 -0.42,-0.8 -0.74,-1.13 -0.31,-0.33 -0.7,-0.58 -1.12,-0.77 -0.44,-0.18 -0.91,-0.28 -1.43,-0.28 -0.51,0 -0.99,0.1 -1.42,0.28 -0.44,0.19 -0.81,0.45 -1.13,0.78 -0.33,0.33 -0.56,0.7 -0.75,1.14 -0.17,0.42 -0.26,0.88 -0.26,1.37 0,0.49 0.09,0.95 0.26,1.38 0.17,0.43 0.42,0.8 0.74,1.13 0.32,0.33 0.69,0.58 1.12,0.77 0.43,0.18 0.9,0.28 1.42,0.29zm0.02 -0.91l0 0c-0.35,-0.02 -0.7,-0.08 -1,-0.21 -0.3,-0.15 -0.57,-0.33 -0.79,-0.57 -0.23,-0.25 -0.41,-0.53 -0.53,-0.85 -0.13,-0.31 -0.2,-0.66 -0.2,-1.03 0,-0.37 0.07,-0.71 0.19,-1.04 0.11,-0.32 0.29,-0.6 0.51,-0.85 0.21,-0.24 0.48,-0.43 0.78,-0.57 0.3,-0.14 0.65,-0.21 1.02,-0.21 0.37,0 0.7,0.07 1,0.21 0.31,0.14 0.58,0.33 0.81,0.57 0.22,0.25 0.41,0.53 0.53,0.85 0.13,0.33 0.19,0.67 0.19,1.04 0,0.37 -0.06,0.72 -0.18,1.03 -0.12,0.32 -0.29,0.6 -0.52,0.85 -0.22,0.24 -0.49,0.42 -0.79,0.57 -0.3,0.13 -0.65,0.19 -1.02,0.21z"/>
  <path class="fil6" d="M217.12 209.51l1.02 0 0 -6.83 -1.02 0 0 3.1c-0.19,0.12 -0.4,0.24 -0.65,0.33 -0.24,0.11 -0.49,0.18 -0.74,0.24 -0.26,0.06 -0.52,0.08 -0.77,0.08 -0.43,-0.01 -0.78,-0.12 -1.01,-0.35 -0.24,-0.23 -0.36,-0.55 -0.36,-0.96l0 -2.44 -1.02 0 0 2.59c0,0.45 0.11,0.82 0.29,1.12 0.19,0.31 0.45,0.53 0.78,0.69 0.35,0.16 0.74,0.24 1.19,0.24 0.28,-0.02 0.56,-0.04 0.85,-0.11 0.29,-0.06 0.55,-0.14 0.8,-0.24 0.27,-0.09 0.48,-0.18 0.64,-0.27l0 2.81z"/>
  <path class="fil6" d="M222.44 209.66c0.41,-0.02 0.77,-0.07 1.07,-0.18 0.32,-0.1 0.58,-0.25 0.81,-0.42 0.24,-0.17 0.42,-0.37 0.58,-0.57l0 1.02 1 0 0 -4.17c0,-0.44 -0.05,-0.82 -0.17,-1.17 -0.12,-0.33 -0.3,-0.61 -0.54,-0.84 -0.24,-0.25 -0.55,-0.44 -0.92,-0.57 -0.37,-0.13 -0.8,-0.19 -1.29,-0.19 -0.33,0 -0.63,0.02 -0.92,0.07 -0.28,0.05 -0.54,0.12 -0.79,0.21 -0.27,0.08 -0.52,0.19 -0.77,0.31l0.3 0.83c0.32,-0.16 0.65,-0.28 0.98,-0.36 0.33,-0.09 0.7,-0.13 1.1,-0.13 0.65,0 1.15,0.14 1.49,0.46 0.36,0.32 0.53,0.78 0.53,1.39l0 0.21c-0.2,-0.07 -0.4,-0.12 -0.61,-0.16 -0.21,-0.04 -0.43,-0.08 -0.68,-0.1 -0.24,-0.02 -0.51,-0.03 -0.8,-0.03 -0.58,0 -1.08,0.08 -1.52,0.25 -0.43,0.17 -0.78,0.41 -1.01,0.74 -0.26,0.34 -0.37,0.75 -0.39,1.24 0.02,0.36 0.08,0.66 0.23,0.94 0.14,0.26 0.33,0.49 0.58,0.67 0.24,0.18 0.5,0.31 0.8,0.4 0.31,0.09 0.63,0.15 0.94,0.15zm0.2 -0.82l0 0c-0.3,0 -0.59,-0.07 -0.85,-0.17 -0.26,-0.11 -0.47,-0.26 -0.63,-0.47 -0.14,-0.2 -0.22,-0.45 -0.24,-0.72 0,-0.29 0.08,-0.53 0.24,-0.74 0.16,-0.22 0.38,-0.37 0.69,-0.49 0.29,-0.12 0.64,-0.17 1.07,-0.17 0.42,0 0.79,0.02 1.12,0.09 0.33,0.05 0.62,0.12 0.87,0.2l0 0.63c0,0.36 -0.1,0.67 -0.3,0.95 -0.2,0.28 -0.48,0.49 -0.82,0.65 -0.34,0.14 -0.73,0.22 -1.15,0.24z"/>
  <path class="fil6" d="M227.46 209.51l1.24 0c0.32,-0.41 0.64,-0.83 0.96,-1.24 0.31,-0.41 0.63,-0.83 0.93,-1.24l1.91 0 0 2.48 1 0 0 -6.83 -3.21 0c-0.54,0 -1,0.09 -1.39,0.26 -0.38,0.19 -0.67,0.44 -0.87,0.76 -0.21,0.31 -0.3,0.68 -0.3,1.11 0,0.37 0.08,0.68 0.23,0.96 0.16,0.29 0.39,0.52 0.65,0.7 0.28,0.19 0.58,0.32 0.93,0.4l-2.08 2.64zm2.91 -3.34l0 0c-0.32,0 -0.59,-0.06 -0.85,-0.16 -0.23,-0.11 -0.43,-0.25 -0.56,-0.45 -0.15,-0.2 -0.22,-0.44 -0.23,-0.71 0.01,-0.4 0.15,-0.72 0.44,-0.93 0.28,-0.22 0.67,-0.34 1.17,-0.34l2.16 0 0 2.59 -2.13 0z"/>
  <polygon class="fil6" points="239.74,209.51 240.75,209.51 240.75,203.58 244.64,203.58 244.64,209.51 245.66,209.51 245.66,202.68 239.74,202.68 "/>
  <path class="fil6" d="M251.05 209.67c0.53,-0.01 1,-0.11 1.42,-0.29 0.44,-0.19 0.82,-0.45 1.14,-0.78 0.33,-0.33 0.58,-0.7 0.75,-1.14 0.17,-0.42 0.27,-0.88 0.27,-1.36 0,-0.5 -0.1,-0.96 -0.27,-1.39 -0.17,-0.42 -0.42,-0.8 -0.74,-1.13 -0.31,-0.33 -0.7,-0.58 -1.12,-0.77 -0.44,-0.18 -0.91,-0.28 -1.43,-0.28 -0.51,0 -0.99,0.1 -1.42,0.28 -0.43,0.19 -0.81,0.45 -1.13,0.78 -0.31,0.33 -0.56,0.7 -0.74,1.14 -0.18,0.42 -0.26,0.88 -0.27,1.37 0.01,0.49 0.09,0.95 0.26,1.38 0.19,0.43 0.42,0.8 0.74,1.13 0.32,0.33 0.7,0.58 1.12,0.77 0.44,0.18 0.9,0.28 1.42,0.29zm0.02 -0.91l0 0c-0.35,-0.02 -0.68,-0.08 -0.99,-0.21 -0.31,-0.15 -0.58,-0.33 -0.8,-0.57 -0.23,-0.25 -0.41,-0.53 -0.53,-0.85 -0.13,-0.31 -0.2,-0.66 -0.2,-1.03 0,-0.37 0.07,-0.71 0.18,-1.04 0.12,-0.32 0.3,-0.6 0.52,-0.85 0.22,-0.24 0.48,-0.43 0.79,-0.57 0.31,-0.14 0.64,-0.21 1.01,-0.21 0.37,0 0.7,0.07 1,0.21 0.32,0.14 0.58,0.33 0.81,0.57 0.23,0.25 0.41,0.53 0.54,0.85 0.12,0.33 0.18,0.67 0.18,1.04 0,0.37 -0.05,0.72 -0.18,1.03 -0.12,0.32 -0.29,0.6 -0.52,0.85 -0.22,0.24 -0.49,0.42 -0.79,0.57 -0.3,0.13 -0.65,0.19 -1.02,0.21z"/>
  <path class="fil6" d="M256.46 209.51l3.43 0c0.5,0 0.95,-0.08 1.32,-0.24 0.37,-0.14 0.64,-0.35 0.86,-0.63 0.19,-0.28 0.3,-0.61 0.3,-0.99 0,-0.33 -0.07,-0.6 -0.21,-0.82 -0.13,-0.23 -0.31,-0.41 -0.54,-0.56 -0.23,-0.14 -0.48,-0.25 -0.76,-0.31 0.2,-0.08 0.39,-0.19 0.56,-0.32 0.17,-0.13 0.3,-0.3 0.42,-0.5 0.11,-0.21 0.16,-0.47 0.16,-0.76 0,-0.35 -0.09,-0.64 -0.26,-0.91 -0.19,-0.25 -0.45,-0.45 -0.78,-0.58 -0.33,-0.14 -0.73,-0.21 -1.19,-0.21l-3.31 0 0 6.83zm1.02 -0.87l0 0 0 -2.21 2.14 0c0.56,0 0.99,0.09 1.27,0.28 0.29,0.18 0.44,0.45 0.44,0.78 0,0.36 -0.14,0.63 -0.41,0.83 -0.28,0.21 -0.66,0.31 -1.17,0.32l-2.27 0zm0 -3.03l0 0 0 -2.07 2.13 0c0.45,0.01 0.78,0.1 1.02,0.28 0.22,0.17 0.34,0.41 0.34,0.7 0,0.23 -0.05,0.43 -0.17,0.59 -0.12,0.17 -0.28,0.29 -0.49,0.37 -0.21,0.09 -0.45,0.13 -0.73,0.13l-2.1 0z"/>
  <path class="fil6" d="M267.19 209.67c0.44,-0.01 0.82,-0.07 1.15,-0.17 0.35,-0.11 0.65,-0.25 0.93,-0.44 0.26,-0.2 0.51,-0.42 0.74,-0.67l-0.64 -0.57c-0.26,0.29 -0.58,0.53 -0.92,0.7 -0.36,0.17 -0.77,0.25 -1.23,0.26 -0.4,0 -0.78,-0.09 -1.12,-0.27 -0.35,-0.18 -0.64,-0.44 -0.86,-0.77 -0.23,-0.34 -0.37,-0.75 -0.43,-1.23l5.42 0c0.01,-0.08 0.01,-0.14 0.01,-0.21 0,-0.05 0,-0.11 0,-0.15 0,-0.51 -0.06,-0.97 -0.21,-1.41 -0.14,-0.43 -0.34,-0.82 -0.62,-1.15 -0.28,-0.33 -0.61,-0.59 -1,-0.78 -0.39,-0.18 -0.83,-0.28 -1.35,-0.28 -0.48,0 -0.91,0.1 -1.31,0.28 -0.39,0.19 -0.74,0.44 -1.03,0.75 -0.3,0.34 -0.53,0.72 -0.69,1.14 -0.15,0.44 -0.25,0.9 -0.25,1.4 0,0.53 0.1,1.02 0.28,1.45 0.17,0.44 0.41,0.81 0.73,1.13 0.31,0.32 0.67,0.55 1.08,0.72 0.41,0.18 0.86,0.26 1.32,0.27zm-2.38 -3.98l0 0c0.06,-0.45 0.19,-0.84 0.39,-1.19 0.2,-0.34 0.46,-0.62 0.78,-0.82 0.3,-0.19 0.66,-0.29 1.05,-0.29 0.35,0 0.64,0.06 0.9,0.17 0.25,0.14 0.48,0.3 0.66,0.51 0.17,0.21 0.32,0.46 0.43,0.74 0.1,0.27 0.17,0.57 0.19,0.88l-4.4 0z"/>
  <path class="fil6" d="M272.03 211.62l1.02 0 0 -3.42c0.17,0.25 0.38,0.49 0.63,0.72 0.24,0.21 0.53,0.39 0.86,0.52 0.33,0.14 0.7,0.2 1.12,0.22 0.42,0 0.82,-0.1 1.2,-0.26 0.4,-0.15 0.74,-0.38 1.05,-0.7 0.31,-0.3 0.55,-0.67 0.74,-1.11 0.18,-0.43 0.27,-0.93 0.27,-1.49 0,-0.57 -0.09,-1.08 -0.27,-1.52 -0.19,-0.45 -0.43,-0.82 -0.74,-1.12 -0.31,-0.3 -0.66,-0.53 -1.05,-0.69 -0.38,-0.16 -0.79,-0.24 -1.2,-0.24 -0.42,0 -0.79,0.07 -1.11,0.22 -0.33,0.13 -0.62,0.31 -0.86,0.54 -0.25,0.24 -0.46,0.49 -0.64,0.76l0 -1.37 -1.02 0 0 8.94zm3.45 -2.88l0 0c-0.32,-0.01 -0.62,-0.06 -0.93,-0.19 -0.29,-0.12 -0.55,-0.31 -0.79,-0.53 -0.23,-0.24 -0.41,-0.52 -0.54,-0.85 -0.15,-0.31 -0.21,-0.67 -0.21,-1.07 0,-0.41 0.06,-0.76 0.21,-1.08 0.13,-0.33 0.31,-0.61 0.54,-0.85 0.24,-0.24 0.5,-0.41 0.79,-0.54 0.31,-0.12 0.61,-0.18 0.93,-0.18 0.33,0 0.63,0.05 0.92,0.18 0.29,0.12 0.54,0.29 0.77,0.53 0.22,0.22 0.39,0.5 0.51,0.83 0.14,0.32 0.2,0.69 0.2,1.1 0,0.55 -0.12,1.03 -0.33,1.43 -0.21,0.39 -0.5,0.7 -0.86,0.91 -0.37,0.2 -0.76,0.3 -1.21,0.31z"/>
  <polygon class="fil6" points="280.18,209.51 281.32,209.51 283.44,206.72 285.56,209.51 286.73,209.51 284.04,206.01 286.63,202.68 285.49,202.68 283.47,205.32 281.45,202.68 280.29,202.68 282.86,206.04 "/>
  <polygon class="fil6" points="288.39,209.51 289.4,209.51 289.4,206.52 293.34,206.52 293.34,209.51 294.36,209.51 294.36,202.68 293.34,202.68 293.34,205.63 289.4,205.63 289.4,202.68 288.39,202.68 "/>
  <path class="fil6" d="M299.75 209.67c0.53,-0.01 1,-0.11 1.42,-0.29 0.44,-0.19 0.82,-0.45 1.14,-0.78 0.33,-0.33 0.58,-0.7 0.75,-1.14 0.18,-0.42 0.27,-0.88 0.27,-1.36 0,-0.5 -0.09,-0.96 -0.27,-1.39 -0.17,-0.42 -0.42,-0.8 -0.74,-1.13 -0.31,-0.33 -0.7,-0.58 -1.12,-0.77 -0.44,-0.18 -0.91,-0.28 -1.43,-0.28 -0.51,0 -0.99,0.1 -1.42,0.28 -0.43,0.19 -0.81,0.45 -1.13,0.78 -0.31,0.33 -0.56,0.7 -0.74,1.14 -0.18,0.42 -0.26,0.88 -0.27,1.37 0.01,0.49 0.09,0.95 0.26,1.38 0.19,0.43 0.42,0.8 0.74,1.13 0.32,0.33 0.7,0.58 1.12,0.77 0.44,0.18 0.9,0.28 1.42,0.29zm0.02 -0.91l0 0c-0.35,-0.02 -0.68,-0.08 -0.99,-0.21 -0.31,-0.15 -0.58,-0.33 -0.8,-0.57 -0.23,-0.25 -0.41,-0.53 -0.53,-0.85 -0.13,-0.31 -0.2,-0.66 -0.2,-1.03 0,-0.37 0.07,-0.71 0.19,-1.04 0.11,-0.32 0.29,-0.6 0.51,-0.85 0.23,-0.24 0.48,-0.43 0.79,-0.57 0.31,-0.14 0.64,-0.21 1.01,-0.21 0.37,0 0.7,0.07 1,0.21 0.32,0.14 0.58,0.33 0.81,0.57 0.24,0.25 0.41,0.53 0.54,0.85 0.12,0.33 0.18,0.67 0.18,1.04 0,0.37 -0.05,0.72 -0.18,1.03 -0.12,0.32 -0.29,0.6 -0.52,0.85 -0.22,0.24 -0.48,0.42 -0.79,0.57 -0.3,0.13 -0.65,0.19 -1.02,0.21z"/>
  <path class="fil6" d="M308.24 209.67c0.44,-0.01 0.81,-0.07 1.15,-0.17 0.33,-0.12 0.64,-0.28 0.9,-0.48 0.27,-0.2 0.52,-0.42 0.74,-0.67l-0.67 -0.62c-0.17,0.18 -0.37,0.37 -0.58,0.51 -0.2,0.16 -0.43,0.28 -0.68,0.37 -0.24,0.09 -0.51,0.13 -0.8,0.15 -0.36,-0.02 -0.69,-0.08 -0.99,-0.21 -0.31,-0.14 -0.57,-0.33 -0.8,-0.57 -0.22,-0.24 -0.41,-0.52 -0.53,-0.85 -0.13,-0.31 -0.19,-0.66 -0.19,-1.03 0.01,-0.5 0.11,-0.96 0.33,-1.36 0.21,-0.4 0.5,-0.71 0.87,-0.95 0.35,-0.24 0.78,-0.36 1.24,-0.36 0.32,0 0.59,0.04 0.85,0.13 0.23,0.08 0.47,0.2 0.67,0.36 0.21,0.15 0.41,0.32 0.58,0.52l0.65 -0.69c-0.2,-0.24 -0.44,-0.44 -0.7,-0.62 -0.25,-0.19 -0.56,-0.33 -0.89,-0.44 -0.33,-0.1 -0.71,-0.16 -1.15,-0.16 -0.5,0 -0.96,0.1 -1.38,0.28 -0.43,0.19 -0.8,0.45 -1.11,0.78 -0.32,0.33 -0.56,0.7 -0.73,1.14 -0.19,0.42 -0.26,0.88 -0.28,1.37 0.02,0.49 0.09,0.94 0.28,1.38 0.17,0.42 0.41,0.8 0.73,1.13 0.31,0.33 0.68,0.58 1.11,0.77 0.42,0.18 0.88,0.28 1.38,0.29z"/>
  <polygon class="fil6" points="314.36,209.51 315.39,209.51 315.39,203.58 317.84,203.58 317.84,202.68 311.92,202.68 311.92,203.58 314.36,203.58 "/>
  <path class="fil6" d="M319.31 209.51l2.96 0c0.53,-0.01 0.98,-0.09 1.37,-0.28 0.38,-0.18 0.68,-0.43 0.89,-0.76 0.22,-0.33 0.32,-0.73 0.32,-1.18 0,-0.37 -0.08,-0.67 -0.21,-0.94 -0.15,-0.25 -0.33,-0.46 -0.58,-0.63 -0.25,-0.16 -0.53,-0.28 -0.86,-0.36 -0.32,-0.08 -0.67,-0.12 -1.04,-0.12l-1.83 0 0 -2.56 -1.02 0 0 6.83zm1.02 -0.9l0 0 0 -2.5 1.81 0c0.53,0 0.94,0.1 1.23,0.31 0.31,0.2 0.45,0.5 0.45,0.9 0,0.42 -0.14,0.75 -0.44,0.96 -0.29,0.21 -0.68,0.33 -1.2,0.33l-1.85 0z"/>
 </g>
</svg>
