<svg width="13" height="15" viewBox="0 0 13 15" fill="none" xmlns="http://www.w3.org/2000/svg">
<path d="M11.0976 2.1875C9.87456 0.781249 8.2439 0 6.52265 0C2.94425 0 0.0452955 3.33333 0.0452955 7.44792C0.0452955 8.75 0.362369 10.0521 0.905923 11.1458L0 15L3.44251 13.9583C4.39373 14.5313 5.43554 14.8438 6.52265 14.8438C10.101 14.8438 13 11.5104 13 7.39583C12.9547 5.46875 12.3206 3.59375 11.0976 2.1875ZM9.64808 10.1042C9.51219 10.5208 8.87805 10.9375 8.56097 10.9896C8.2892 11.0417 7.92683 11.0417 7.56446 10.9375C7.33798 10.8333 7.02091 10.7292 6.65854 10.5208C5.02787 9.73958 3.98606 7.86458 3.89547 7.70833C3.80488 7.60417 3.21603 6.71875 3.21603 5.78125C3.21603 4.84375 3.62369 4.42708 3.75958 4.21875C3.89547 4.01042 4.07665 4.01042 4.21254 4.01042C4.30314 4.01042 4.43902 4.01042 4.52961 4.01042C4.62021 4.01042 4.7561 3.95833 4.89199 4.32292C5.02787 4.6875 5.34495 5.625 5.39024 5.67708C5.43554 5.78125 5.43554 5.88542 5.39024 5.98958C5.34495 6.09375 5.29965 6.19792 5.20906 6.30208C5.11846 6.40625 5.02787 6.5625 4.98258 6.61458C4.89198 6.71875 4.80139 6.82292 4.89199 6.97917C4.98258 7.1875 5.29965 7.76042 5.79791 8.28125C6.43205 8.90625 6.93031 9.11458 7.1115 9.21875C7.29268 9.32292 7.38327 9.27083 7.47387 9.16667C7.56446 9.0625 7.88153 8.64583 7.97213 8.4375C8.06272 8.22917 8.1986 8.28125 8.33449 8.33333C8.47038 8.38542 9.28571 8.85417 9.4216 8.95833C9.60279 9.0625 9.69338 9.11458 9.73867 9.16667C9.78397 9.32292 9.78397 9.6875 9.64808 10.1042Z" fill="white"/>
</svg>
