<svg width="67" height="27" viewBox="0 0 67 27" fill="none" xmlns="http://www.w3.org/2000/svg">
<path d="M9.77539 16.6177L15.6543 1.11719H21.9946L13.6035 20.856C13.2845 21.5851 12.9142 22.2801 12.4927 22.9409C12.0825 23.6017 11.5926 24.1885 11.0229 24.7012C10.4647 25.2139 9.80387 25.6183 9.04053 25.9146C8.27718 26.2108 7.38281 26.3589 6.35742 26.3589C6.10677 26.3589 5.79915 26.3532 5.43457 26.3418C5.08138 26.3418 4.77376 26.3361 4.51172 26.3247L4.40918 21.6763C4.55729 21.7104 4.76237 21.7332 5.02441 21.7446C5.28646 21.7446 5.47445 21.7446 5.58838 21.7446C6.27197 21.7446 6.81315 21.6649 7.21191 21.5054C7.61068 21.3345 7.92399 21.0838 8.15186 20.7534C8.39111 20.4116 8.59619 19.9787 8.76709 19.4546L9.77539 16.6177ZM6.44287 1.11719L11.5356 11.918L13.4839 18.8223H9.17725L0.0683594 1.11719H6.44287ZM36.4014 1.11719V26H30.4028V1.11719H36.4014ZM43.8867 1.11719V5.74854H23.0884V1.11719H43.8867ZM60.105 17.5747H66.0864C66.0067 19.3065 65.5396 20.8332 64.6851 22.1548C63.8306 23.4764 62.6457 24.5075 61.1304 25.248C59.6265 25.9772 57.8491 26.3418 55.7983 26.3418C54.1349 26.3418 52.6481 26.0627 51.3379 25.5044C50.0391 24.9461 48.9339 24.1429 48.0225 23.0947C47.1224 22.0465 46.4331 20.7762 45.9546 19.2837C45.4875 17.7912 45.2539 16.1107 45.2539 14.2422V12.8921C45.2539 11.0236 45.4989 9.3431 45.9888 7.85059C46.4901 6.34668 47.1965 5.07064 48.1079 4.02246C49.0308 2.96289 50.1359 2.15397 51.4233 1.5957C52.7108 1.03743 54.1406 0.758301 55.7129 0.758301C57.8776 0.758301 59.7062 1.14567 61.1987 1.92041C62.6912 2.69515 63.8477 3.76042 64.668 5.11621C65.4883 6.46061 65.9725 7.993 66.1206 9.71338H60.1392C60.1164 8.77913 59.9569 7.9987 59.6606 7.37207C59.3644 6.73405 58.8973 6.25553 58.2593 5.93652C57.6213 5.61751 56.7725 5.45801 55.7129 5.45801C54.9723 5.45801 54.3286 5.59473 53.7817 5.86816C53.2349 6.1416 52.7791 6.57454 52.4146 7.16699C52.05 7.75944 51.7765 8.52848 51.5942 9.47412C51.4233 10.4084 51.3379 11.5363 51.3379 12.8579V14.2422C51.3379 15.5638 51.4176 16.6917 51.5771 17.626C51.7367 18.5602 51.993 19.3236 52.3462 19.916C52.6994 20.5085 53.1551 20.9471 53.7134 21.2319C54.283 21.5054 54.978 21.6421 55.7983 21.6421C56.7098 21.6421 57.4788 21.4997 58.1055 21.2148C58.7321 20.9186 59.2163 20.4743 59.5581 19.8818C59.8999 19.278 60.0822 18.509 60.105 17.5747Z" fill="#E89239"/>
</svg>
