<svg width="14" height="14" viewBox="0 0 14 14" fill="none" xmlns="http://www.w3.org/2000/svg">
<path d="M2.81944 5.70781C3.93944 7.78005 5.74 9.47519 7.945 10.5296L9.65611 8.91503C9.87 8.71366 10.1772 8.65508 10.4456 8.73563C11.3167 9.00656 12.2539 9.153 13.2222 9.153C13.6539 9.153 14 9.47885 14 9.88525V12.4481C14 12.8545 13.6539 13.1803 13.2222 13.1803C5.91889 13.1803 0 7.60798 0 0.73224C0 0.325847 0.35 0 0.777778 0H3.5C3.93167 0 4.27778 0.325847 4.27778 0.73224C4.27778 1.64388 4.43333 2.52623 4.72111 3.34634C4.80667 3.59896 4.74444 3.8882 4.53056 4.08956L2.81944 5.70781Z" fill="#6C728A"/>
</svg>
